<svg xmlns="http://www.w3.org/2000/svg" xmlns:xlink="http://www.w3.org/1999/xlink" width="160" height="160" viewBox="0 0 160 160">
  <defs>
    <linearGradient id="linear-gradient" x1="0.239" y1="0.044" x2="0.878" y2="0.768" gradientUnits="objectBoundingBox">
      <stop offset="0.01" stop-color="#e8e8e8" stop-opacity="0.678"/>
      <stop offset="1" stop-color="#808081" stop-opacity="0.678"/>
    </linearGradient>
  </defs>
  <g id="Favoritos_Ilustración_Mesa_de_trabajo_1" data-name="Favoritos Ilustración_Mesa de trabajo 1" transform="translate(-290 -230)">
    <circle id="Elipse_12" data-name="Elipse 12" cx="80" cy="80" r="80" transform="translate(290 230)" fill="#f9f9f9"/>
    <line id="Línea_71" data-name="Línea 71" y2="84.56" transform="translate(370 304.65)" fill="none" stroke="#dfdfde" stroke-linecap="round" stroke-miterlimit="10" stroke-width="1"/>
    <path id="Trazado_49" data-name="Trazado 49" d="M504.451,321.724a15.145,15.145,0,0,0-20.022,2.88,15.124,15.124,0,0,0-20.022-2.88,14.31,14.31,0,0,0-6.118,11.2c-.365,10.144,8.64,18.272,22.352,30.742l.259.234a5.219,5.219,0,0,0,7.04-.026l.288-.259c13.722-12.445,22.688-20.573,22.349-30.72A14.294,14.294,0,0,0,504.451,321.724Z" transform="translate(-114.428 -60.614)" fill="url(#linear-gradient)"/>
    <circle id="Elipse_13" data-name="Elipse 13" cx="3.002" cy="3.002" r="3.002" transform="translate(366.998 383.997)" fill="#f49a4e"/>
  </g>
</svg>
