<!DOCTYPE svg PUBLIC "-//W3C//DTD SVG 20010904//EN" "http://www.w3.org/TR/2001/REC-SVG-20010904/DTD/svg10.dtd">
<svg version="1.0" xmlns="http://www.w3.org/2000/svg" width="892px" height="700px" viewBox="0 0 8920 7000" preserveAspectRatio="xMidYMid meet">
<g id="layer101" fill="#1d262e" stroke="none">
<path d="M2656 6984 c-8 -20 -8 -607 0 -628 5 -14 45 -16 344 -16 l337 0 11 -64 c6 -36 22 -87 35 -115 l25 -49 -84 -12 c-46 -7 -84 -15 -84 -19 0 -3 20 -16 43 -29 66 -35 113 -78 156 -141 75 -110 143 -152 224 -137 51 10 153 62 171 87 21 31 20 81 -2 110 -11 13 -22 35 -25 49 -11 41 -45 89 -79 111 -28 17 -44 20 -99 15 l-66 -5 -7 46 c-3 25 -6 70 -6 99 l0 54 50 0 c43 0 50 3 55 23 3 12 4 159 3 327 l-3 305 -496 3 c-447 2 -497 1 -503 -14z m874 -690 c0 -25 5 -77 12 -115 9 -58 14 -69 27 -63 59 24 89 26 135 6 70 -31 112 -113 65 -127 -35 -11 -86 4 -133 39 -61 47 -77 55 -148 69 -62 13 -63 13 -90 67 -15 30 -31 81 -34 113 l-7 57 87 0 86 0 0 -46z"/>
<path d="M3160 5473 c-372 -321 -710 -722 -930 -1105 l-45 -78 -860 0 c-938 0 -912 1 -1033 -58 -68 -32 -168 -124 -212 -192 -48 -75 -80 -186 -80 -278 0 -151 47 -261 159 -373 83 -82 144 -118 251 -145 77 -19 221 -15 287 9 l41 16 28 -40 c46 -66 155 -162 230 -201 94 -50 176 -68 307 -68 205 0 353 47 452 144 l62 61 12 -120 c27 -277 107 -516 238 -714 71 -107 227 -269 331 -344 298 -215 682 -310 1001 -248 524 102 897 442 1025 933 34 131 56 295 63 468 15 372 -74 717 -297 1154 -187 367 -344 603 -575 866 -100 115 -362 370 -379 370 -6 0 -40 -26 -76 -57z"/>
</g>
<g id="layer102" fill="#e30613" stroke="none">
<path d="M2656 6984 c-8 -20 -8 -607 0 -628 5 -14 59 -16 500 -16 l494 0 5 23 c3 12 4 159 3 327 l-3 305 -496 3 c-447 2 -497 1 -503 -14z"/>
<path d="M3303 6098 c-35 -5 -63 -13 -63 -16 0 -4 20 -17 43 -30 66 -35 113 -78 156 -141 75 -110 143 -152 224 -137 51 10 153 62 171 87 21 31 20 81 -3 110 -15 19 -28 23 -79 23 -52 1 -66 5 -104 34 -98 73 -198 94 -345 70z"/>
</g>
<g id="layer103" fill="#fed061" stroke="none">
<path d="M3155 5438 c-303 -264 -555 -550 -770 -873 -272 -409 -443 -761 -507 -1047 -20 -91 -23 -128 -23 -328 1 -195 4 -239 24 -330 111 -515 432 -885 905 -1044 343 -115 664 -90 990 77 377 193 604 527 665 982 67 495 -3 873 -255 1376 -199 399 -384 673 -650 964 -103 112 -285 285 -300 285 -5 0 -40 -28 -79 -62z"/>
</g>
<g id="layer104" fill="#feeec0" stroke="none">
<path d="M3155 5438 c-303 -264 -555 -550 -770 -873 -272 -409 -443 -761 -507 -1047 -20 -91 -23 -128 -23 -328 1 -195 4 -239 24 -330 111 -515 432 -885 905 -1044 343 -115 664 -90 990 77 377 193 604 527 665 982 67 495 -3 873 -255 1376 -199 399 -384 673 -650 964 -103 112 -285 285 -300 285 -5 0 -40 -28 -79 -62z m161 -1968 c199 -69 334 -259 334 -470 0 -243 -178 -452 -419 -491 -242 -40 -486 114 -555 350 -25 84 -21 221 8 303 59 168 209 297 379 328 71 12 184 3 253 -20z"/>
<path d="M402 4274 c-126 -33 -253 -126 -322 -234 -48 -75 -80 -186 -80 -278 0 -151 47 -261 159 -373 83 -82 144 -118 251 -145 77 -19 221 -15 287 9 l41 16 28 -40 c46 -66 155 -162 230 -201 94 -50 176 -68 307 -68 205 0 354 47 452 144 l61 61 12 140 c6 77 19 174 28 215 38 182 142 437 273 669 28 50 51 93 51 96 0 3 -388 5 -862 4 -714 0 -872 -3 -916 -15z"/>
<path d="M7473 4275 c-91 -25 -174 -74 -244 -144 -165 -165 -204 -397 -102 -609 37 -76 159 -198 235 -235 124 -59 272 -74 387 -38 l61 19 36 -49 c89 -121 245 -223 382 -250 141 -27 389 4 504 62 50 26 121 91 159 146 l29 42 -2 533 -3 533 -695 2 c-571 1 -704 -1 -747 -12z"/>
<path d="M5143 1859 c-119 -20 -248 -91 -323 -177 -49 -57 -104 -167 -119 -240 -37 -177 17 -351 150 -483 139 -139 342 -190 525 -134 l49 15 30 -37 c199 -253 481 -333 812 -228 187 59 304 207 354 449 10 48 19 90 21 91 2 2 28 -5 58 -15 151 -52 341 2 434 125 164 215 80 515 -171 617 l-58 23 -855 2 c-470 0 -878 -3 -907 -8z"/>
</g>
<g id="layer105" fill="#ffffff" stroke="none">
<path d="M3155 5438 c-292 -255 -547 -542 -753 -847 -85 -125 -181 -280 -206 -331 -4 -8 -20 -37 -36 -65 -28 -47 -160 -311 -182 -365 -6 -14 -15 -34 -19 -45 -18 -40 -58 -165 -53 -165 3 0 0 -8 -5 -17 -5 -10 -12 -31 -15 -48 -38 -206 -38 -211 -33 -405 4 -146 11 -220 27 -295 109 -509 433 -880 904 -1039 343 -115 664 -90 990 77 377 193 604 527 665 982 67 495 -3 873 -255 1376 -199 399 -384 673 -650 964 -103 112 -285 285 -300 285 -5 0 -40 -28 -79 -62z m161 -1968 c199 -69 334 -259 334 -470 0 -243 -178 -452 -419 -491 -242 -40 -486 114 -555 350 -25 84 -21 221 8 303 59 168 209 297 379 328 71 12 184 3 253 -20z"/>
</g>


</svg>