<svg xmlns="http://www.w3.org/2000/svg" width="320" height="298.256" viewBox="0 0 320 298.256">
  <g id="Diseño_landing_page_Mesa_de_trabajo_1_copia_2" data-name="Diseño landing page_Mesa de trabajo 1 copia 2" transform="translate(0 -124.33)">
    <path id="Trazado_87" data-name="Trazado 87" d="M85.88,374.561a74.289,74.289,0,0,1-12.472,21.152C48,425.7,7.007,422.834,0,422.233V124.33a230.921,230.921,0,0,1,53.716,12.8c41.139,15.239,53.6,33.475,84.951,43.816,17.3,5.7,44.424,10.341,83.092.6,4.905-1.456,41.744-11.767,69.847,10.236,13.312,10.423,18.994,23.657,21.674,30.108,1.714,4.106,13.85,34.263.6,63.836-13.462,30.007-44.376,41.105-61.525,47.265-41.352,14.824-93.44,12.764-102.243,12.413-13.014-.519-32.5-2.117-48.781,10.143A53.352,53.352,0,0,0,85.88,374.561Z" fill="#ffeec0"/>
    <circle id="Elipse_24" data-name="Elipse 24" cx="6.701" cy="6.701" r="6.701" transform="translate(255.33 191.81)" fill="#f49a4e"/>
    <circle id="Elipse_25" data-name="Elipse 25" cx="8.918" cy="8.918" r="8.918" transform="translate(47.974 153.93)" fill="#f49a4e"/>
    <path id="Trazado_88" data-name="Trazado 88" d="M325.631,595.574c.53,4.345.8,6.518.149,8.213-2.792,7.291-15.343,7.937-16.332,7.978-3.255.131-9.527.373-13.17-3.763-3.811-4.33-3.266-10.154-3.013-12.42a18.393,18.393,0,0,1,5.6-11.453,17.486,17.486,0,0,1,10.591-4.73c.747-.052,9.053-.523,13.32,5.122C324.571,586.891,324.922,589.784,325.631,595.574Z" transform="translate(-183.672 -285.167)" fill="#f49a4e"/>
    <path id="Trazado_89" data-name="Trazado 89" d="M312.5,600.334A27.547,27.547,0,1,1,286.367,556" transform="translate(-165.078 -270.522)" fill="none" stroke="#f49a4e" stroke-miterlimit="10" stroke-width="1"/>
    <path id="Trazado_90" data-name="Trazado 90" d="M664.58,432.681c21.436-5.193,37.361-22.944,39.9-44.193A52.135,52.135,0,0,0,681.39,339.26" transform="translate(-416.485 -134.694)" fill="none" stroke="#f49a4e" stroke-miterlimit="10" stroke-width="1"/>
    <path id="Trazado_91" data-name="Trazado 91" d="M167.08,246.35a158.827,158.827,0,0,0,18.49,15.272,162.067,162.067,0,0,0,52.745,24.314" transform="translate(-104.707 -76.469)" fill="none" stroke="#f49a4e" stroke-miterlimit="10" stroke-width="1"/>
    <path id="Trazado_92" data-name="Trazado 92" d="M324.9,537.1a28.372,28.372,0,0,0,20.2-11.259" transform="translate(-203.611 -251.622)" fill="none" stroke="#f49a4e" stroke-miterlimit="10" stroke-width="1"/>
    <rect id="Rectángulo_4" data-name="Rectángulo 4" width="81.274" height="19.636" transform="translate(153.977 287.189) rotate(-6.92)" fill="#ffe59a" stroke="#f49a4e" stroke-miterlimit="10" stroke-width="2"/>
    <path id="Trazado_93" data-name="Trazado 93" d="M472.909,367.382l-80.706,9.8L389.59,355.53a18.7,18.7,0,0,1,12.1,5.547c4.144,3.7,13.26,1.262,36.334-5.5,11.05-3.237,14.283-4.237,18.77-2.986,2.135.586,4.581,1.687,7.309.747,3.36-1.161,5.167-4.722,6.19-7.582Z" transform="translate(-244.152 -138.768)" fill="#ffe59a"/>
    <path id="Trazado_94" data-name="Trazado 94" d="M471.5,396.182,452.015,235.658a11.987,11.987,0,0,0-13.3-10.419L360.188,234.8a11.987,11.987,0,0,0-10.419,13.3L369.26,408.628" transform="translate(-219.144 -63.186)" fill="none" stroke="#1c242d" stroke-linecap="round" stroke-miterlimit="10" stroke-width="2"/>
    <path id="Trazado_95" data-name="Trazado 95" d="M0,0H43.237V5.775a5.3,5.3,0,0,1-5.3,5.3H4.4A4.4,4.4,0,0,1,0,6.69Z" transform="translate(158.839 169.448) rotate(-6.92)" fill="none" stroke="#1c242d" stroke-linecap="round" stroke-miterlimit="10" stroke-width="2"/>
    <rect id="Rectángulo_5" data-name="Rectángulo 5" width="81.285" height="56.183" rx="12" transform="translate(151.576 267.508) rotate(-6.92)" fill="none" stroke="#1c242d" stroke-linecap="round" stroke-miterlimit="10" stroke-width="2"/>
    <line id="Línea_38" data-name="Línea 38" y1="9.796" x2="80.695" transform="translate(156.339 296.875)" fill="none" stroke="#1c242d" stroke-linecap="round" stroke-miterlimit="10" stroke-width="2"/>
    <path id="Trazado_96" data-name="Trazado 96" d="M3.815,0H35.483A3.819,3.819,0,0,1,39.3,3.819V26.677H0V3.815A3.815,3.815,0,0,1,3.815,0Z" transform="translate(163.725 209.649) rotate(-6.92)" fill="#ffe59a" stroke="#f49a4e" stroke-linecap="round" stroke-miterlimit="10" stroke-width="2"/>
    <path id="Trazado_97" data-name="Trazado 97" d="M2.557,0H6.88A2.557,2.557,0,0,1,9.437,2.557V15.048H0V2.553A2.557,2.557,0,0,1,2.557,0Z" transform="translate(169.603 220.666) rotate(-6.92)" fill="#f49a4e" stroke="#f49a4e" stroke-linecap="round" stroke-miterlimit="10" stroke-width="2"/>
    <rect id="Rectángulo_6" data-name="Rectángulo 6" width="17.101" height="9.239" rx="4.62" transform="translate(184.239 218.89) rotate(-6.92)" fill="#f49a4e" stroke="#f49a4e" stroke-linecap="round" stroke-miterlimit="10" stroke-width="2"/>
    <path id="Trazado_98" data-name="Trazado 98" d="M4.177,0h9.4a.4.4,0,0,1,.4.4V3.009a5.7,5.7,0,0,1-5.7,5.7H4.551A4.551,4.551,0,0,1,0,4.159H0A4.148,4.148,0,0,1,4.177,0Z" transform="translate(163.707 209.65) rotate(-6.92)" fill="#f49a4e" stroke="#f49a4e" stroke-linecap="round" stroke-miterlimit="10" stroke-width="2"/>
    <path id="Trazado_99" data-name="Trazado 99" d="M0,0H12.752V3.378A5.308,5.308,0,0,1,7.429,8.7H4.14A4.159,4.159,0,0,1,0,4.539Z" transform="translate(177.587 207.967) rotate(-6.92)" fill="#f49a4e" stroke="#f49a4e" stroke-linecap="round" stroke-miterlimit="10" stroke-width="2"/>
    <path id="Trazado_100" data-name="Trazado 100" d="M.007,0H8.945A3.386,3.386,0,0,1,12.33,3.386h0A5.308,5.308,0,0,1,7.022,8.694H4.159A4.159,4.159,0,0,1,0,4.536V0Z" transform="translate(190.226 206.433) rotate(-6.92)" fill="#f49a4e" stroke="#f49a4e" stroke-linecap="round" stroke-miterlimit="10" stroke-width="2"/>
    <rect id="Rectángulo_7" data-name="Rectángulo 7" width="81.285" height="56.183" rx="12" transform="translate(143.314 199.388) rotate(-6.92)" fill="none" stroke="#1c242d" stroke-linecap="round" stroke-miterlimit="10" stroke-width="2"/>
    <line id="Línea_39" data-name="Línea 39" y1="9.796" x2="80.695" transform="translate(148.063 228.615)" fill="none" stroke="#1c242d" stroke-linecap="round" stroke-miterlimit="10" stroke-width="2"/>
    <text id="_" data-name="$$$" transform="translate(204.31 242.239) rotate(-6.92)" fill="#1c242d" font-size="10" font-family="SegoeUI-Light, Segoe UI" font-weight="300" letter-spacing="0.1em"><tspan x="0" y="0">$$$</tspan></text>
    <text id="Exquisito_" data-name="Exquisito!" transform="translate(157.073 246.849) rotate(-6.92)" fill="#1c242d" font-size="5" font-family="SegoeUI-Light, Segoe UI" font-weight="300" letter-spacing="0.1em"><tspan x="0" y="0">E</tspan><tspan y="0" letter-spacing="0.05em">x</tspan><tspan y="0">quisi</tspan><tspan y="0" letter-spacing="0.09em">t</tspan><tspan y="0">o!</tspan></text>
    <ellipse id="Elipse_26" data-name="Elipse 26" cx="6.727" cy="1.37" rx="6.727" ry="1.37" transform="translate(173.525 290.387) rotate(-6.92)" fill="#f49a4e" stroke="#f49a4e" stroke-miterlimit="10" stroke-width="2"/>
    <ellipse id="Elipse_27" data-name="Elipse 27" cx="6.727" cy="1.37" rx="6.727" ry="1.37" transform="translate(197.547 287.469) rotate(-6.92)" fill="#f49a4e" stroke="#f49a4e" stroke-miterlimit="10" stroke-width="2"/>
    <line id="Línea_40" data-name="Línea 40" x2="1.269" y2="10.468" transform="translate(180.541 292.283)" fill="none" stroke="#f49a4e" stroke-miterlimit="10" stroke-width="2"/>
    <line id="Línea_41" data-name="Línea 41" x2="1.269" y2="10.468" transform="translate(204.564 289.367)" fill="none" stroke="#f49a4e" stroke-miterlimit="10" stroke-width="2"/>
    <path id="Trazado_101" data-name="Trazado 101" d="M.784,0H1.971a.9.9,0,0,1,.9.9V6.272H0V.784A.784.784,0,0,1,.784,0Z" transform="translate(170.16 278.906) rotate(-6.92)" fill="none" stroke="#f49a4e" stroke-miterlimit="10" stroke-width="1"/>
    <path id="Trazado_102" data-name="Trazado 102" d="M1.008,0H7.772A1.008,1.008,0,0,1,8.78,1.008V3.136H0V1.008A1.008,1.008,0,0,1,1.008,0Z" transform="translate(175.962 281.36) rotate(-6.92)" fill="none" stroke="#f49a4e" stroke-miterlimit="10" stroke-width="1"/>
    <path id="Trazado_103" data-name="Trazado 103" d="M476.16,526.57a4.272,4.272,0,0,0,.295,1.318c.258.635.553.9.53,1.381a1.433,1.433,0,0,1-.392.859" transform="translate(-298.404 -252.079)" fill="none" stroke="#f49a4e" stroke-miterlimit="10" stroke-width="1"/>
    <path id="Trazado_104" data-name="Trazado 104" d="M483.87,523.34a4.707,4.707,0,0,1,.441,2.5,3.217,3.217,0,0,0,.022,1.322,2.987,2.987,0,0,0,.265.691" transform="translate(-303.236 -250.055)" fill="none" stroke="#f49a4e" stroke-miterlimit="10" stroke-width="1"/>
    <path id="Trazado_105" data-name="Trazado 105" d="M.784,0H1.971a.9.9,0,0,1,.9.9V3.853H0V.784A.784.784,0,0,1,.784,0Z" transform="translate(197.027 278.126) rotate(-6.92)" fill="none" stroke="#f49a4e" stroke-miterlimit="10" stroke-width="1"/>
    <path id="Trazado_106" data-name="Trazado 106" d="M1.008,0H6.675A1.008,1.008,0,0,1,7.683,1.008V3.136H0V1.008A1.008,1.008,0,0,1,1.008,0Z" transform="translate(202.54 278.177) rotate(-6.92)" fill="none" stroke="#f49a4e" stroke-miterlimit="10" stroke-width="1"/>
    <path id="Trazado_107" data-name="Trazado 107" d="M547.93,520.76a5.483,5.483,0,0,0,.2,1.071,4.232,4.232,0,0,1,.317,1.12,1.415,1.415,0,0,1-.164.679" transform="translate(-343.381 -248.438)" fill="none" stroke="#f49a4e" stroke-miterlimit="10" stroke-width="1"/>
    <path id="Trazado_108" data-name="Trazado 108" d="M552.92,515.64a4.674,4.674,0,0,1,.441,2.5,3.19,3.19,0,0,0,.026,1.325,2.957,2.957,0,0,0,.261.691" transform="translate(-346.509 -245.229)" fill="none" stroke="#f49a4e" stroke-miterlimit="10" stroke-width="1"/>
    <text id="_2" data-name="$$" transform="translate(212.754 311.795) rotate(-6.92)" fill="#1c242d" font-size="10" font-family="SegoeUI-Light, Segoe UI" font-weight="300" letter-spacing="0.1em"><tspan x="0" y="0">$$</tspan></text>
    <text id="Delicioso_" data-name="Delicioso!" transform="translate(165.518 316.405) rotate(-6.92)" fill="#1c242d" font-size="5" font-family="SegoeUI-Light, Segoe UI" font-weight="300" letter-spacing="0.1em"><tspan x="0" y="0">Delicioso!</tspan></text>
  </g>
</svg>
