<svg xmlns="http://www.w3.org/2000/svg" width="321.184" height="328.586" viewBox="0 0 321.184 328.586">
  <g id="Diseño_landing_page_Mesa_de_trabajo_1_copia" data-name="Diseño landing page_Mesa de trabajo 1 copia" transform="translate(0 -21.634)">
    <path id="Trazado_72" data-name="Trazado 72" d="M71.783,305.937a75.412,75.412,0,0,1-34.538,27.646A74.871,74.871,0,0,1,0,337.957V110.618C30.594,71.143,62.469,49.758,83.091,38.4c40.6-22.378,57.088-16.658,62.173-14.446C153.8,27.66,165.617,36.857,172.91,49.7c5.95,10.49,4.252,15.256,11.572,23.612s12.924,8.076,22.382,16.413a65.493,65.493,0,0,1,15.642,20.961c1.659,9.735,2.2,23.114-5.237,33.806-8.82,12.682-23.215,13.453-48.755,18.885,0,0-83.687,17.787-105.523,49.611A61.192,61.192,0,0,0,54.814,231.2c-1.3,5.51-2.2,9.345-1.258,13.815,2.449,11.682,14.1,11.818,22.495,27.117,2.219,4.046,5.175,9.6,4.513,16.849C79.777,297.721,74.189,303.66,71.783,305.937Z" transform="translate(0 0)" fill="#ffeec0"/>
    <path id="Trazado_73" data-name="Trazado 73" d="M471.882,250.908H418.17a12.5,12.5,0,0,1-12.46-12.46V94.57a12.5,12.5,0,0,1,12.46-12.46H490.6a12.5,12.5,0,0,1,12.46,12.46V238.448c0,6.853-2.885,12.46-6.413,12.46H490.23" transform="translate(-247.733 -36.928)" fill="none" stroke="#1c242d" stroke-linecap="round" stroke-miterlimit="10" stroke-width="2"/>
    <path id="Trazado_74" data-name="Trazado 74" d="M478.23,82.11h40.885v6.444a2.336,2.336,0,0,1-2.336,2.336H480.566a2.336,2.336,0,0,1-2.336-2.336V82.11Z" transform="translate(-292.015 -36.928)" fill="none" stroke="#1c242d" stroke-linecap="round" stroke-miterlimit="10" stroke-width="2"/>
    <line id="Línea_21" data-name="Línea 21" y1="12.46" x2="14.131" transform="translate(272.604 157.033)" fill="none" stroke="#1c242d" stroke-linecap="round" stroke-miterlimit="10" stroke-width="2"/>
    <line id="Línea_22" data-name="Línea 22" x2="49.592" y2="10.424" transform="translate(270.408 182.95)" fill="none" stroke="#1c242d" stroke-linecap="round" stroke-miterlimit="10" stroke-width="2"/>
    <rect id="Rectángulo_1" data-name="Rectángulo 1" width="77.25" height="20.513" rx="10.256" transform="translate(168.027 174.018)" fill="#f89b4c"/>
    <text id="PAGAR" transform="translate(180.281 187.355)" fill="#1d1d1b" font-size="10" font-family="SegoeUI-Light, Segoe UI" font-weight="300" letter-spacing="0.1em"><tspan x="0" y="0">PAGAR</tspan></text>
    <circle id="Elipse_18" data-name="Elipse 18" cx="35.045" cy="35.045" r="35.045" transform="translate(171.606 76.037)" fill="none" stroke="#1c242d" stroke-miterlimit="10" stroke-width="2"/>
    <rect id="Rectángulo_2" data-name="Rectángulo 2" width="8.96" height="36.505" rx="4.48" transform="translate(199.439 88.231) rotate(-65)" fill="#f3999d"/>
    <rect id="Rectángulo_3" data-name="Rectángulo 3" width="8.96" height="36.505" rx="4.48" transform="translate(199.439 88.231) rotate(-65)" fill="none" stroke="#1c242d" stroke-miterlimit="10" stroke-width="2"/>
    <line id="Línea_23" data-name="Línea 23" y1="4.057" x2="4.057" transform="translate(206.853 85.667)" fill="none" stroke="#1c242d" stroke-miterlimit="10" stroke-width="2"/>
    <line id="Línea_24" data-name="Línea 24" y1="4.057" x2="4.057" transform="translate(212.055 88.092)" fill="none" stroke="#1c242d" stroke-miterlimit="10" stroke-width="2"/>
    <line id="Línea_25" data-name="Línea 25" y1="4.057" x2="4.057" transform="translate(217.615 90.686)" fill="none" stroke="#1c242d" stroke-miterlimit="10" stroke-width="2"/>
    <line id="Línea_26" data-name="Línea 26" y1="4.057" x2="4.053" transform="translate(222.817 93.112)" fill="none" stroke="#1c242d" stroke-miterlimit="10" stroke-width="2"/>
    <line id="Línea_27" data-name="Línea 27" y1="4.057" x2="4.053" transform="translate(227.171 95.14)" fill="none" stroke="#1c242d" stroke-miterlimit="10" stroke-width="2"/>
    <path id="Trazado_75" data-name="Trazado 75" d="M513.387,215.186a4.486,4.486,0,1,1,4-8.021L541.7,219.271a4.486,4.486,0,1,1-4.007,8.021Z" transform="translate(-311.845 -112.94)" fill="#f3999d"/>
    <path id="Trazado_76" data-name="Trazado 76" d="M513.387,215.186a4.486,4.486,0,1,1,4-8.021L541.7,219.271a4.486,4.486,0,1,1-4.007,8.021Z" transform="translate(-311.845 -112.94)" fill="none" stroke="#1c242d" stroke-miterlimit="10" stroke-width="2"/>
    <line id="Línea_28" data-name="Línea 28" x1="4.163" y2="3.948" transform="translate(222.494 106.736)" fill="none" stroke="#1c242d" stroke-miterlimit="10" stroke-width="2"/>
    <line id="Línea_29" data-name="Línea 29" x1="4.163" y2="3.952" transform="translate(217.358 104.178)" fill="none" stroke="#1c242d" stroke-miterlimit="10" stroke-width="2"/>
    <line id="Línea_30" data-name="Línea 30" x1="4.163" y2="3.952" transform="translate(211.864 101.441)" fill="none" stroke="#1c242d" stroke-miterlimit="10" stroke-width="2"/>
    <line id="Línea_31" data-name="Línea 31" x1="4.159" y2="3.952" transform="translate(206.732 98.882)" fill="none" stroke="#1c242d" stroke-miterlimit="10" stroke-width="2"/>
    <line id="Línea_32" data-name="Línea 32" x1="4.163" y2="3.948" transform="translate(202.429 96.745)" fill="none" stroke="#1c242d" stroke-miterlimit="10" stroke-width="2"/>
    <path id="Trazado_77" data-name="Trazado 77" d="M470.532,212.13A17.425,17.425,0,0,0,463,217.581c-4.427,5.681-4.75,14.084-1.114,21.732" transform="translate(-280.512 -116.32)" fill="none" stroke="#1c242d" stroke-miterlimit="10" stroke-width="2"/>
    <path id="Trazado_78" data-name="Trazado 78" d="M513.37,290.452A29.647,29.647,0,0,0,545.8,271.61" transform="translate(-313.472 -152.639)" fill="none" stroke="#1c242d" stroke-miterlimit="10" stroke-width="2"/>
    <path id="Trazado_79" data-name="Trazado 79" d="M513.059,252.115a8.028,8.028,0,0,1,1.557,6.18c-1.071,5.35-9.139,8.64-15.268,7.4-1.39-.28-5.2-1.044-7.278-4.015-1.024-1.46-1.5-3.263-3.707-5.56-1.168-1.227-1.378-1.055-1.853-1.733-1.947-2.788-.95-9.014,3.088-11.545,3.925-2.465,8.777-.214,9.735.238,2.8,1.3,2.3,2.375,6,4.7C509.477,250.387,511.284,249.8,513.059,252.115Z" transform="translate(-296.484 -134.379)" fill="#fff"/>
    <circle id="Elipse_19" data-name="Elipse 19" cx="4.015" cy="4.015" r="4.015" transform="translate(194.895 113.687)" fill="#f49a4e"/>
    <line id="Línea_33" data-name="Línea 33" x1="2.48" y1="40.917" transform="translate(241.403 195.932)" fill="none" stroke="#1c242d" stroke-linecap="round" stroke-miterlimit="10" stroke-width="2"/>
    <path id="Trazado_80" data-name="Trazado 80" d="M574.157,452.026c-.989-6.44,2.9-12.071,7.519-12.682,4.957-.65,10.33,4.564,10.175,11.608" transform="translate(-350.495 -255.027)" fill="none" stroke="#1c242d" stroke-miterlimit="10" stroke-width="2"/>
    <path id="Trazado_81" data-name="Trazado 81" d="M570.872,613.051a4.233,4.233,0,0,0-3.614-.915,3.419,3.419,0,0,0-1.09.685,8.076,8.076,0,0,0-2.091,3.1c-3.325,8.469,3.894,26.665,3.894,26.665A102.321,102.321,0,0,0,583.819,669.6" transform="translate(-343.9 -360.49)" fill="none" stroke="#1c242d" stroke-linecap="round" stroke-miterlimit="10" stroke-width="2"/>
    <line id="Línea_34" data-name="Línea 34" x1="1.032" y1="16.969" transform="translate(223.604 197.011)" fill="none" stroke="#1c242d" stroke-linecap="round" stroke-miterlimit="10" stroke-width="2"/>
    <line id="Línea_35" data-name="Línea 35" x1="2.336" y1="38.58" transform="translate(224.636 213.98)" fill="none" stroke="#1c242d" stroke-linecap="round" stroke-miterlimit="10" stroke-width="2"/>
    <path id="Trazado_82" data-name="Trazado 82" d="M626.32,567.922a9.785,9.785,0,0,1,4.638-1.795c2.784-.269,3.785,1.02,6.538,1.117,3.458.125,3.528-1.854,7.367-2.336,4.314-.561,4.914,1.853,9.287,1.339,3.255-.389,4.112-2.62,7.359-2.336a8.4,8.4,0,0,1,3.828,1.316c3.314,2.157,4.3,6.113,4.521,7.087" transform="translate(-382.441 -331.108)" fill="none" stroke="#1c242d" stroke-miterlimit="10" stroke-width="2"/>
    <path id="Trazado_83" data-name="Trazado 83" d="M738.13,585.47a128.862,128.862,0,0,1,3.4,55.966" transform="translate(-450.714 -344.287)" fill="none" stroke="#1c242d" stroke-miterlimit="10" stroke-width="2"/>
    <path id="Trazado_84" data-name="Trazado 84" d="M743.758,729.2a56.555,56.555,0,0,0-1.324,6.281,58.969,58.969,0,0,0,.058,17.818" transform="translate(-452.946 -432.051)" fill="none" stroke="#1c242d" stroke-miterlimit="10" stroke-width="2"/>
    <path id="Trazado_85" data-name="Trazado 85" d="M616.14,759.92a72.748,72.748,0,0,1,2.843,6.857,77.126,77.126,0,0,1,3.96,33.164" transform="translate(-376.225 -450.809)" fill="none" stroke="#1c242d" stroke-linecap="round" stroke-miterlimit="10" stroke-width="2"/>
    <line id="Línea_36" data-name="Línea 36" x1="14.131" y1="12.46" transform="translate(128.762 162.146)" fill="none" stroke="#1c242d" stroke-linecap="round" stroke-miterlimit="10" stroke-width="2"/>
    <line id="Línea_37" data-name="Línea 37" x1="40.648" y2="10.252" transform="translate(100.165 191.883)" fill="none" stroke="#1c242d" stroke-linecap="round" stroke-miterlimit="10" stroke-width="2"/>
  </g>
</svg>
