<svg xmlns="http://www.w3.org/2000/svg" width="321.15" height="244.989" viewBox="0 0 321.15 244.989">
  <g id="Diseño_landing_page" data-name="Diseño landing page" transform="translate(0.33 -0.001)">
    <path id="Trazado_43" data-name="Trazado 43" d="M68.265,267.37a59.051,59.051,0,0,1-9.914,16.813C38.152,308.024,5.57,305.748,0,305.264V91.8c9.451-5.691,24.3-12.76,42.7-13.149,33.149-.718,48.443,20.828,85.067,27.986,13.974,2.73,34.757,4.092,61.856-3.956,3,.145,24.089,1.484,33.532,17.8,8.95,15.466,1.32,33.852-3.306,45-7.573,18.241-24.155,41.289-51.473,52.425-34.33,13.994-55.74-2.994-78.859,14.837C76.583,242.726,70.951,257.554,68.265,267.37Z" transform="translate(0 -78.63)" fill="#ffeec0"/>
    <circle id="Elipse_2" data-name="Elipse 2" cx="56.117" cy="56.117" r="56.117" transform="translate(86.153 37.396)" fill="none" stroke="#1c242d" stroke-miterlimit="10" stroke-width="2"/>
    <path id="Trazado_44" data-name="Trazado 44" d="M496.914,254.159c4.748,2.208,7.241,6.938,5.573,10.517s-6.905,4.694-11.638,2.487l-35.769-16.674c-4.733-2.208-7.24-6.941-5.573-10.517s6.905-4.7,11.653-2.493Z" transform="translate(-315.756 -189.545)" fill="#f3999d"/>
    <path id="Trazado_45" data-name="Trazado 45" d="M496.914,254.159c4.748,2.208,7.241,6.938,5.573,10.517s-6.905,4.694-11.638,2.487l-35.769-16.674c-4.733-2.208-7.24-6.941-5.573-10.517s6.905-4.7,11.653-2.493Z" transform="translate(-315.756 -189.545)" fill="none" stroke="#1c242d" stroke-miterlimit="10" stroke-width="2"/>
    <line id="Línea_2" data-name="Línea 2" y1="6.496" x2="6.496" transform="translate(142.596 52.815)" fill="none" stroke="#1c242d" stroke-miterlimit="10" stroke-width="2"/>
    <line id="Línea_3" data-name="Línea 3" y1="6.499" x2="6.499" transform="translate(150.92 56.696)" fill="none" stroke="#1c242d" stroke-miterlimit="10" stroke-width="2"/>
    <line id="Línea_4" data-name="Línea 4" y1="6.496" x2="6.496" transform="translate(159.828 60.85)" fill="none" stroke="#1c242d" stroke-miterlimit="10" stroke-width="2"/>
    <line id="Línea_5" data-name="Línea 5" y1="6.499" x2="6.496" transform="translate(168.154 64.732)" fill="none" stroke="#1c242d" stroke-miterlimit="10" stroke-width="2"/>
    <line id="Línea_6" data-name="Línea 6" y1="6.496" x2="6.496" transform="translate(175.125 67.984)" fill="none" stroke="#1c242d" stroke-miterlimit="10" stroke-width="2"/>
    <path id="Trazado_46" data-name="Trazado 46" d="M444,315.661c-4.677-2.326-7.062-7.122-5.3-10.653s7.024-4.519,11.7-2.19l35.33,17.591c4.674,2.329,7.059,7.122,5.3,10.656s-7.024,4.516-11.7,2.19Z" transform="translate(-308.11 -235.404)" fill="#f3999d"/>
    <path id="Trazado_47" data-name="Trazado 47" d="M444,315.661c-4.677-2.326-7.062-7.122-5.3-10.653s7.024-4.519,11.7-2.19l35.33,17.591c4.674,2.329,7.059,7.122,5.3,10.656s-7.024,4.516-11.7,2.19Z" transform="translate(-308.11 -235.404)" fill="none" stroke="#1c242d" stroke-miterlimit="10" stroke-width="2"/>
    <line id="Línea_7" data-name="Línea 7" x1="6.662" y2="6.327" transform="translate(167.641 86.551)" fill="none" stroke="#1c242d" stroke-miterlimit="10" stroke-width="2"/>
    <line id="Línea_8" data-name="Línea 8" x1="6.659" y2="6.327" transform="translate(159.418 82.456)" fill="none" stroke="#1c242d" stroke-miterlimit="10" stroke-width="2"/>
    <line id="Línea_9" data-name="Línea 9" x1="6.662" y2="6.327" transform="translate(150.62 78.073)" fill="none" stroke="#1c242d" stroke-miterlimit="10" stroke-width="2"/>
    <line id="Línea_10" data-name="Línea 10" x1="6.659" y2="6.327" transform="translate(142.397 73.978)" fill="none" stroke="#1c242d" stroke-miterlimit="10" stroke-width="2"/>
    <line id="Línea_11" data-name="Línea 11" x1="6.662" y2="6.327" transform="translate(135.51 70.551)" fill="none" stroke="#1c242d" stroke-miterlimit="10" stroke-width="2"/>
    <path id="Trazado_48" data-name="Trazado 48" d="M347.395,311.33a27.874,27.874,0,0,0-12.066,8.727c-7.089,9.1-7.608,22.552-1.78,34.8" transform="translate(-231.764 -242.278)" fill="none" stroke="#1c242d" stroke-miterlimit="10" stroke-width="2"/>
    <path id="Trazado_49" data-name="Trazado 49" d="M443,466.5a47.463,47.463,0,0,0,51.93-30.17" transform="translate(-311.544 -330.185)" fill="none" stroke="#1c242d" stroke-miterlimit="10" stroke-width="2"/>
    <path id="Trazado_50" data-name="Trazado 50" d="M428.541,390.2a12.829,12.829,0,0,1,2.472,9.89c-1.712,8.57-14.629,13.84-24.443,11.87-2.232-.448-8.33-1.674-11.659-6.43-1.635-2.335-2.395-5.223-5.935-8.9-1.9-1.964-2.208-1.691-2.967-2.775-3.128-4.469-1.519-14.436,4.944-18.49,6.288-3.944,14.054-.341,15.617.383,4.487,2.077,3.683,3.8,9.606,7.528C422.781,387.433,425.695,386.5,428.541,390.2Z" transform="translate(-270.378 -286.036)" fill="#fff"/>
    <circle id="Elipse_3" data-name="Elipse 3" cx="6.43" cy="6.43" r="6.43" transform="translate(123.438 97.682)" fill="#f49a4e"/>
    <line id="Línea_12" data-name="Línea 12" x1="15.618" y1="27.054" transform="translate(183.618 166.01)" fill="none" stroke="#fff" stroke-linecap="round" stroke-miterlimit="10" stroke-width="2"/>
    <path id="Trazado_51" data-name="Trazado 51" d="M574.958,632.2c-2.867-4.054-2.131-9.223.81-11.208,3.16-2.131,8.606-.4,10.887,4.451" transform="translate(-403.071 -459.417)" fill="none" stroke="#fff" stroke-miterlimit="10" stroke-width="2"/>
    <path id="Trazado_52" data-name="Trazado 52" d="M641.842,784.552a3.263,3.263,0,0,0-2.778.593,2.582,2.582,0,0,0-.51.837,6.145,6.145,0,0,0-.371,2.822c.614,6.908,11.727,16.858,11.727,16.858a78.041,78.041,0,0,0,20,13.027" transform="translate(-448.785 -575.023)" fill="none" stroke="#fff" stroke-linecap="round" stroke-miterlimit="10" stroke-width="2"/>
    <line id="Línea_13" data-name="Línea 13" x1="21.205" y1="36.731" transform="translate(171.852 172.802)" fill="none" stroke="#fff" stroke-linecap="round" stroke-miterlimit="10" stroke-width="2"/>
    <path id="Trazado_53" data-name="Trazado 53" d="M671.37,693.2a7.446,7.446,0,0,1,2.549-2.8c1.807-1.131,2.929-.593,4.84-1.463,2.4-1.092,1.78-2.463,4.223-4.11,2.754-1.849,3.979-.409,6.786-2.246,2.077-1.368,1.911-3.187,4.22-4.107a6.454,6.454,0,0,1,3.059-.407,8.9,8.9,0,0,1,5.5,3.294" transform="translate(-472.147 -500.156)" fill="none" stroke="#fff" stroke-miterlimit="10" stroke-width="2"/>
    <path id="Trazado_54" data-name="Trazado 54" d="M776.42,689.25a98.168,98.168,0,0,1,21.365,37.007" transform="translate(-546.024 -508.053)" fill="none" stroke="#fff" stroke-miterlimit="10" stroke-width="2"/>
    <path id="Trazado_55" data-name="Trazado 55" d="M848.42,814a42,42,0,0,0,1.234,4.73,44.943,44.943,0,0,0,6.1,12.131" transform="translate(-596.659 -595.785)" fill="none" stroke="#fff" stroke-miterlimit="10" stroke-width="2"/>
    <line id="Línea_14" data-name="Línea 14" x2="16.128" transform="translate(204.998 160.677)" fill="#fff" stroke="#fff" stroke-linecap="round" stroke-miterlimit="10" stroke-width="2"/>
    <line id="Línea_15" data-name="Línea 15" x2="14.861" transform="translate(194.737 153.627)" fill="#fff" stroke="#fff" stroke-linecap="round" stroke-miterlimit="10" stroke-width="2"/>
    <line id="Línea_16" data-name="Línea 16" x2="14.861" transform="translate(194.737 166.728)" fill="#fff" stroke="#fff" stroke-linecap="round" stroke-miterlimit="10" stroke-width="2"/>
    <path id="Trazado_56" data-name="Trazado 56" d="M2.11,215a42.71,42.71,0,1,1,.042,72.36" transform="translate(-1.484 -169.93)" fill="none" stroke="#878787" stroke-miterlimit="10" stroke-width="2"/>
    <path id="Trazado_57" data-name="Trazado 57" d="M1.16,246.321a34.125,34.125,0,1,1,.323,50.686" transform="translate(-0.816 -190.281)" fill="none" stroke="#878787" stroke-miterlimit="10" stroke-width="2"/>
    <path id="Trazado_58" data-name="Trazado 58" d="M893.988,280.6a42.71,42.71,0,1,1,.193-49.191" transform="translate(-574.181 -173.234)" fill="none" stroke="#706f6f" stroke-miterlimit="10" stroke-width="2"/>
    <circle id="Elipse_4" data-name="Elipse 4" cx="34.125" cy="34.125" r="34.125" transform="translate(250.856 48.506)" fill="none" stroke="#706f6f" stroke-miterlimit="10" stroke-width="2"/>
    <path id="Trazado_59" data-name="Trazado 59" d="M44.865,352.106a8.461,8.461,0,0,1,1.677,6.6c-1.163,5.724-9.926,9.241-16.582,7.926-1.513-.3-5.638-1.116-7.908-4.294-1.11-1.558-1.623-3.487-4.027-5.935-1.285-1.312-1.484-1.128-2.012-1.852-2.122-2.994-1.039-9.647,3.356-12.356,4.264-2.632,9.531-.228,10.591.255,3.045,1.392,2.5,2.54,6.528,5.03C40.957,350.255,42.933,349.632,44.865,352.106Z" transform="translate(-10.523 -263.134)" fill="#ca9e67"/>
    <path id="Trazado_60" data-name="Trazado 60" d="M43.6,271.82c-.11,3.614-3.172,7.81-7.81,7.81-4.748,0-7.757-4.386-7.81-7.81a6.905,6.905,0,0,1,.991-3.528,8.157,8.157,0,0,1,7.223-4.1,7.8,7.8,0,0,1,5.413,2.421A7.687,7.687,0,0,1,43.6,271.82Z" transform="translate(-19.677 -209.13)" fill="#e30613"/>
    <path id="Trazado_61" data-name="Trazado 61" d="M40.3,276.16" transform="translate(-28.341 -217.544)" fill="#e30613"/>
    <path id="Trazado_86" data-name="Trazado 86" d="M0,5.14" transform="translate(15.425 65.361)" fill="none" stroke="#fff" stroke-width="2"/>
    <ellipse id="Elipse_5" data-name="Elipse 5" cx="1.068" cy="0.285" rx="1.068" ry="0.285" transform="translate(13.099 64.734) rotate(-30)" fill="#fff"/>
    <ellipse id="Elipse_6" data-name="Elipse 6" cx="0.285" cy="1.068" rx="0.285" ry="1.068" transform="translate(16.143 63.892) rotate(-45)" fill="#fff"/>
    <ellipse id="Elipse_7" data-name="Elipse 7" cx="0.285" cy="1.068" rx="0.285" ry="1.068" transform="translate(11.786 62.221) rotate(-45)" fill="#fff"/>
    <ellipse id="Elipse_8" data-name="Elipse 8" cx="0.285" cy="1.068" rx="0.285" ry="1.068" transform="translate(13.908 60.254)" fill="#fff"/>
    <ellipse id="Elipse_9" data-name="Elipse 9" cx="1.068" cy="0.285" rx="1.068" ry="0.285" transform="translate(16.029 62.212) rotate(-30)" fill="#fff"/>
    <path id="Trazado_62" data-name="Trazado 62" d="M103.015,311.546a6.822,6.822,0,0,1-13.635.006,5.638,5.638,0,0,1,.866-2.982,7.163,7.163,0,0,1,6.3-3.454,6.947,6.947,0,0,1,4.733,2.042A6.4,6.4,0,0,1,103.015,311.546Z" transform="translate(-62.857 -237.906)" fill="#e30613"/>
    <path id="Trazado_63" data-name="Trazado 63" d="M100.17,315.22" transform="translate(-70.445 -245.013)" fill="#e30613"/>
    <ellipse id="Elipse_10" data-name="Elipse 10" cx="0.923" cy="0.243" rx="0.923" ry="0.243" transform="translate(30.731 75.354) rotate(-29.04)" fill="#fff"/>
    <ellipse id="Elipse_11" data-name="Elipse 11" cx="0.243" cy="0.917" rx="0.243" ry="0.917" transform="translate(33.38 74.657) rotate(-46.13)" fill="#fff"/>
    <ellipse id="Elipse_12" data-name="Elipse 12" cx="0.243" cy="0.917" rx="0.243" ry="0.917" transform="translate(29.58 73.246) rotate(-46.13)" fill="#fff"/>
    <ellipse id="Elipse_13" data-name="Elipse 13" cx="0.249" cy="0.899" rx="0.249" ry="0.899" transform="translate(31.425 71.59)" fill="#fff"/>
    <ellipse id="Elipse_14" data-name="Elipse 14" cx="0.923" cy="0.243" rx="0.923" ry="0.243" transform="translate(33.285 73.227) rotate(-29.04)" fill="#fff"/>
    <ellipse id="Elipse_15" data-name="Elipse 15" cx="12.211" cy="11.721" rx="12.211" ry="11.721" transform="translate(280.412 58.779)" fill="#f3999d" stroke="#f3999d" stroke-miterlimit="10" stroke-width="2"/>
    <circle id="Elipse_16" data-name="Elipse 16" cx="4.531" cy="4.531" r="4.531" transform="translate(288.272 66.18)" fill="#575756" stroke="#f3999d" stroke-miterlimit="10" stroke-width="2"/>
    <path id="Trazado_64" data-name="Trazado 64" d="M977.35,287.07a7.484,7.484,0,0,1,4.843,1.567c1.024.858,1.78,2.107,3.561,2.706a5.9,5.9,0,0,0,1.424.3" transform="translate(-687.33 -225.217)" fill="none" stroke="#fff" stroke-linecap="round" stroke-miterlimit="10" stroke-width="2"/>
    <path id="Trazado_65" data-name="Trazado 65" d="M958.15,300a4.654,4.654,0,0,0,.855,1.994,4.976,4.976,0,0,0,3.1,1.864" transform="translate(-673.827 -234.31)" fill="none" stroke="#fff" stroke-linecap="round" stroke-miterlimit="10" stroke-width="2"/>
    <path id="Trazado_66" data-name="Trazado 66" d="M1006.15,321.15l3.988,2.137" transform="translate(-707.584 -249.184)" fill="none" stroke="#fff" stroke-linecap="round" stroke-miterlimit="10" stroke-width="2"/>
    <path id="Trazado_67" data-name="Trazado 67" d="M952.39,318.27a27.016,27.016,0,0,0,11.68,7.419c.778.234,1.537.421,2.279.57" transform="translate(-669.776 -247.158)" fill="none" stroke="#fff" stroke-linecap="round" stroke-miterlimit="10" stroke-width="2"/>
    <path id="Trazado_68" data-name="Trazado 68" d="M962.47,341.32l3.988,2.137" transform="translate(-676.865 -263.368)" fill="none" stroke="#fff" stroke-linecap="round" stroke-miterlimit="10" stroke-width="2"/>
    <path id="Trazado_69" data-name="Trazado 69" d="M906.9,370.468c2.926,1.564,7.261,10.071,2.932,15.389-3.961,4.864-12.166,3.371-15.772.237-1.644-1.43-.973-2.027-4.786-6.991-2.107-2.745-3.083-3.561-3.413-5.516-.068-.4-.593-3.745,1.614-5.84a5.813,5.813,0,0,1,2.789-1.407c.564-.134,1.332-.24,6.157.772,2.288.481,3.419.777,4.154.982.822.228,1.715.478,2.834.89a29.986,29.986,0,0,1,3.49,1.484Z" transform="translate(-622.914 -280.905)" fill="#3aaa35" stroke="#008d36" stroke-linecap="round" stroke-miterlimit="10" stroke-width="1"/>
    <path id="Trazado_70" data-name="Trazado 70" d="M911.367,377.222c2.344,1.252,5.822,8.077,2.35,12.341-3.175,3.9-9.763,2.7-12.65.19-1.318-1.148-.78-1.626-3.837-5.608-1.691-2.2-2.475-2.864-2.739-4.421-.053-.32-.466-3,1.3-4.686a4.68,4.68,0,0,1,2.237-1.128c.451-.107,1.065-.193,4.938.62,1.834.383,2.742.623,3.329.786.662.184,1.377.383,2.273.706a24.043,24.043,0,0,1,2.8,1.2Z" transform="translate(-629.003 -286.24)" fill="#b6ce35"/>
    <path id="Trazado_71" data-name="Trazado 71" d="M923.081,394.187c.027,2.252-2.513,4.193-4.7,4.273-3.875.139-7.051-5.555-5.84-7.692.852-1.507,3.973-1.392,5.84-.855C918.864,390.053,923.045,391.315,923.081,394.187Z" transform="translate(-641.568 -297.286)" fill="#634e42"/>
  </g>
</svg>
