<svg xmlns="http://www.w3.org/2000/svg" width="319.985" height="292.102" viewBox="0 0 319.985 292.102">
  <g id="Diseño_landing_page_Mesa_de_trabajo_1_copia_3" data-name="Diseño landing page_Mesa de trabajo 1 copia 3" transform="translate(-0.015 -139)">
    <path id="Trazado_109" data-name="Trazado 109" d="M57.514,387.351c-2.57-1.466-16.948-9.372-32.228-3.866C8.548,389.531-2.549,409.233.557,431.1V139c9.116,6.172,21.927,14.618,37.62,24.054,38.408,23.173,82.5,49.773,132.778,65.1,80.085,24.42,122.358,3.918,141.8,35.448,11.3,18.329,6.529,40.662,4.686,49.351-8.3,39.054-42.607,59.64-60.769,70.534-68.537,41.124-144.63,21.61-160.543,17.533a230.83,230.83,0,0,1-38.611-13.668Z" transform="translate(-0.021)" fill="#ffeec0"/>
    <ellipse id="Elipse_28" data-name="Elipse 28" cx="61.898" cy="11.134" rx="61.898" ry="11.134" transform="translate(89.168 340.615)" fill="#fff" stroke="#1c242d" stroke-linecap="round" stroke-miterlimit="10" stroke-width="2"/>
    <path id="Trazado_110" data-name="Trazado 110" d="M250.13,701.127l11.775,16.53a15.5,15.5,0,0,0,9.595,5.6s14.618,1.543,26.75,1.527c14.939-.024,33.47-2.485,33.47-2.485a14.481,14.481,0,0,0,9.213-6l9.437-15.4" transform="translate(-148.565 -333.742)" fill="#fff"/>
    <path id="Trazado_111" data-name="Trazado 111" d="M250.13,701.127l11.775,16.53a15.5,15.5,0,0,0,9.595,5.6s14.618,1.543,26.75,1.527c14.939-.024,33.47-2.485,33.47-2.485a14.481,14.481,0,0,0,9.213-6l9.437-15.4" transform="translate(-148.565 -333.742)" fill="none" stroke="#1c242d" stroke-linecap="round" stroke-miterlimit="10" stroke-width="2"/>
    <path id="Trazado_112" data-name="Trazado 112" d="M189.133,369.965a16.283,16.283,0,0,0-6.188,4.73,70.077,70.077,0,0,0-9.083,17.972c-4.353,13.724-2.436,27.575-2.436,27.575a3.212,3.212,0,0,0,4.393,2.7l10.289-3.549a5.835,5.835,0,0,0,3.691-5.38,149.321,149.321,0,0,1,.581-18.56c1.267-11.455,5.384-24.615,5.384-24.615.666-2.132-.491-3.22-2.578-2.436Z" transform="translate(-101.569 -136.101)" fill="#dedc00"/>
    <ellipse id="Elipse_29" data-name="Elipse 29" cx="13.785" cy="12.949" rx="13.785" ry="12.949" transform="translate(128.461 331.231)" fill="#f3999d" stroke="#f3999d" stroke-miterlimit="10" stroke-width="2"/>
    <path id="Trazado_113" data-name="Trazado 113" d="M366.85,648.3l4.5,2.359" transform="translate(-217.891 -302.5)" fill="none" stroke="#fff" stroke-linecap="round" stroke-miterlimit="10" stroke-width="2"/>
    <path id="Trazado_114" data-name="Trazado 114" d="M6.7,0h3.723a6.643,6.643,0,0,1,6.627,6.631v6.651H0V6.7A6.7,6.7,0,0,1,6.7,0Z" transform="translate(101.45 195.555) rotate(-21.01)" fill="#fbab4f" stroke="#1d252d" stroke-linecap="round" stroke-miterlimit="10" stroke-width="2"/>
    <path id="Trazado_115" data-name="Trazado 115" d="M314.444,327.979a14.2,14.2,0,0,1-5.847,16.932l-.126.081c-10.533,6.813-28.269,17.5-63.258,32.549-50.581,21.768-67,22.471-76.049,22.223h-.118a13.764,13.764,0,0,1-12.774-9.112c-1.186-3.451-2.03-6.732-3.135-9.627-13.806-36.008,8.771-78.18,50.472-94.2l7.309-2.806c41.7-16.014,86.715.191,100.546,36.2Z" transform="translate(-88.548 -82.465)" fill="none" stroke="#1c242d" stroke-linecap="round" stroke-miterlimit="10" stroke-width="2"/>
    <ellipse id="Elipse_30" data-name="Elipse 30" cx="81.153" cy="19.32" rx="81.153" ry="19.32" transform="translate(69.913 332.758)" fill="none" stroke="#1c242d" stroke-linecap="round" stroke-miterlimit="10" stroke-width="2"/>
    <path id="Trazado_117" data-name="Trazado 117" d="M296.4,638.112a8.356,8.356,0,0,1,1.624,6.44c-1.117,5.583-9.526,9.014-15.917,7.715-1.454-.292-5.425-1.088-7.593-4.186-1.064-1.523-1.559-3.4-3.866-5.8-1.218-1.279-1.437-1.1-1.933-1.807-2.03-2.911-.987-9.4,3.224-12.043,4.093-2.566,9.152-.223,10.151.252,2.924,1.352,2.4,2.477,6.257,4.9C292.646,636.309,294.542,635.7,296.4,638.112Z" transform="translate(-159.008 -289.997)" fill="#fff" stroke="#f49a4e" stroke-miterlimit="10" stroke-width="1"/>
    <circle id="Elipse_31" data-name="Elipse 31" cx="4.186" cy="4.186" r="4.186" transform="translate(114.777 345.731)" fill="#f49a4e"/>
    <ellipse id="Elipse_32" data-name="Elipse 32" cx="5.116" cy="5.007" rx="5.116" ry="5.007" transform="translate(137.337 339.409)" fill="#575756" stroke="#f3999d" stroke-miterlimit="10" stroke-width="2"/>
    <path id="Trazado_118" data-name="Trazado 118" d="M324.84,621.3a8.545,8.545,0,0,1,5.465,1.73c1.157.95,2.01,2.327,4.02,2.988a6.667,6.667,0,0,0,1.624.317" transform="translate(-192.94 -286.463)" fill="none" stroke="#fff" stroke-linecap="round" stroke-miterlimit="10" stroke-width="2"/>
    <path id="Trazado_119" data-name="Trazado 119" d="M327.24,631.25a5.137,5.137,0,0,0,.966,2.2,5.685,5.685,0,0,0,3.5,2.03" transform="translate(-194.365 -292.373)" fill="none" stroke="#fff" stroke-linecap="round" stroke-miterlimit="10" stroke-width="2"/>
    <path id="Trazado_120" data-name="Trazado 120" d="M322.49,646a30.474,30.474,0,0,0,13.2,8.174c.881.26,1.738.467,2.574.629" transform="translate(-191.544 -301.134)" fill="none" stroke="#fff" stroke-linecap="round" stroke-miterlimit="10" stroke-width="2"/>
    <path id="Trazado_121" data-name="Trazado 121" d="M330.81,664.59l4.5,2.359" transform="translate(-196.485 -312.175)" fill="none" stroke="#fff" stroke-linecap="round" stroke-miterlimit="10" stroke-width="2"/>
    <path id="Trazado_122" data-name="Trazado 122" d="M500.7,628.853c-1.393,3.313-10.151,8.848-16.327,4.714-5.652-3.78-4.873-12.795-1.843-16.989,1.376-1.917,2.087-1.255,7.069-5.867,2.753-2.554,3.545-3.691,5.612-4.239.406-.114,3.987-1.007,6.472,1.153a6.293,6.293,0,0,1,1.8,2.867c.2.593.406,1.409-.211,6.72-.288,2.517-.5,3.764-.646,4.58-.162.91-.341,1.9-.662,3.143A32.736,32.736,0,0,1,500.7,628.853Z" transform="translate(-285.205 -277.49)" fill="#3aaa35" stroke="#008d36" stroke-linecap="round" stroke-miterlimit="10" stroke-width="1"/>
    <path id="Trazado_123" data-name="Trazado 123" d="M502.474,631.416c-1.121,2.66-8.121,7.1-13.1,3.78-4.531-3.033-3.9-10.257-1.478-13.623,1.1-1.539,1.673-1.007,5.685-4.706,2.209-2.03,2.842-2.96,4.5-3.4.341-.093,3.2-.812,5.189.922a5.039,5.039,0,0,1,1.441,2.3c.162.475.317,1.129-.171,5.388-.231,2.03-.406,3.021-.516,3.654-.13.731-.276,1.523-.532,2.526A26.932,26.932,0,0,1,502.474,631.416Z" transform="translate(-288.674 -281.677)" fill="#b6ce35"/>
    <path id="Trazado_124" data-name="Trazado 124" d="M503.08,639.85c-2.436.256-4.783-2.286-5.092-4.637-.54-4.166,5.279-8.166,7.715-7.077,1.714.767,1.9,4.15,1.51,6.213C507.121,634.875,506.174,639.521,503.08,639.85Z" transform="translate(-295.761 -290.415)" fill="#634e42"/>
    <path id="Trazado_125" data-name="Trazado 125" d="M403.679,635.317a9.977,9.977,0,0,1,4.06,5.169c1.718,5.384-2.745,11.483-7.885,12.644a9.125,9.125,0,0,1-7.309-1c-1.446-.971-2.647-2.473-5.376-3.78a23.611,23.611,0,0,1-2.193-.914c-2.769-1.864-4.946-8.036-3.131-11.909,1.766-3.772,6.44-3.5,7.378-3.447,2.7.154,2.842,1.344,6.679,2.12C400.191,635.062,401.267,633.835,403.679,635.317Z" transform="translate(-226.402 -292.851)" fill="#fff" stroke="#f49a4e" stroke-miterlimit="10" stroke-width="1"/>
    <ellipse id="Elipse_33" data-name="Elipse 33" cx="3.35" cy="4.186" rx="3.35" ry="4.186" transform="translate(166.403 347.031) rotate(-26.8)" fill="#f49a4e"/>
    <path id="Trazado_126" data-name="Trazado 126" d="M452.222,629.712a15.747,15.747,0,0,1-6.72,5.1,14.726,14.726,0,0,1-7.081.893c-.463-1.3-4.467-13.184,2.16-23.855a24.432,24.432,0,0,1,12.587-10.074,26.49,26.49,0,0,1,3.48,15.836A25.8,25.8,0,0,1,452.222,629.712Z" transform="translate(-259.438 -274.869)" fill="#008d36"/>
    <path id="Trazado_127" data-name="Trazado 127" d="M440,643.61c.406-.532.776-1.08,1.157-1.624a74.888,74.888,0,0,0,11.52-27.936" transform="translate(-261.339 -282.157)" fill="none" stroke="#ffe59a" stroke-miterlimit="10" stroke-width="1"/>
    <path id="Trazado_128" data-name="Trazado 128" d="M448.41,667.772a4.892,4.892,0,0,0,3.626-.6,17.146,17.146,0,0,0,1.921-1.913,15.315,15.315,0,0,1,2.4-1.912" transform="translate(-266.334 -311.439)" fill="none" stroke="#ffe59a" stroke-miterlimit="10" stroke-width="1"/>
    <path id="Trazado_129" data-name="Trazado 129" d="M457.36,651.2a5.932,5.932,0,0,1,2.631-1.888c1.389-.471,2.359-.11,3.61-.877a4.568,4.568,0,0,0,1.433-1.421" transform="translate(-271.65 -301.734)" fill="none" stroke="#ffe59a" stroke-miterlimit="10" stroke-width="1"/>
    <path id="Trazado_130" data-name="Trazado 130" d="M465,635.37a11.7,11.7,0,0,0,2.176-.256,12.267,12.267,0,0,0,5.157-2.554" transform="translate(-276.188 -293.151)" fill="none" stroke="#ffe59a" stroke-miterlimit="10" stroke-width="1"/>
    <path id="Trazado_131" data-name="Trazado 131" d="M448.595,655.453a15.489,15.489,0,0,1-1.429-1.982,9.242,9.242,0,0,1-1.32-2.932,7.845,7.845,0,0,1-.134-2.53" transform="translate(-264.704 -302.328)" fill="none" stroke="#ffe59a" stroke-miterlimit="10" stroke-width="1"/>
    <path id="Trazado_132" data-name="Trazado 132" d="M456.773,632.929a9.49,9.49,0,0,0-1-3.212c-.646-1.218-1.19-1.547-1.681-2.55a6.951,6.951,0,0,1-.524-4.117" transform="translate(-269.345 -287.503)" fill="none" stroke="#ffe59a" stroke-miterlimit="10" stroke-width="1"/>
    <path id="Trazado_133" data-name="Trazado 133" d="M229.025,627.933a15.8,15.8,0,0,1,1.145,8.356,14.715,14.715,0,0,1-2.7,6.606c-1.364-.235-13.684-2.578-19.718-13.594a24.42,24.42,0,0,1-2.591-15.925,26.515,26.515,0,0,1,15.487,4.739,25.8,25.8,0,0,1,8.377,9.818Z" transform="translate(-121.634 -281.756)" fill="#008d36"/>
    <path id="Trazado_134" data-name="Trazado 134" d="M233.011,650.115q-.406-.91-.853-1.815a74.99,74.99,0,0,0-18.678-23.75" transform="translate(-126.797 -288.394)" fill="none" stroke="#ffe59a" stroke-miterlimit="10" stroke-width="1"/>
    <path id="Trazado_135" data-name="Trazado 135" d="M254.71,660.7a4.889,4.889,0,0,0,1.267-3.455,17.443,17.443,0,0,0-.723-2.611,15.364,15.364,0,0,1-.491-3.029" transform="translate(-151.286 -304.46)" fill="none" stroke="#ffe59a" stroke-miterlimit="10" stroke-width="1"/>
    <path id="Trazado_136" data-name="Trazado 136" d="M243.742,645.108a5.937,5.937,0,0,1-.353-3.22c.272-1.442,1.06-2.107,1.011-3.577a4.592,4.592,0,0,0-.536-1.941" transform="translate(-144.512 -295.414)" fill="none" stroke="#ffe59a" stroke-miterlimit="10" stroke-width="1"/>
    <path id="Trazado_137" data-name="Trazado 137" d="M232.58,631.1a11.368,11.368,0,0,0,.845-2.03,12.287,12.287,0,0,0,.313-5.75" transform="translate(-138.141 -287.663)" fill="none" stroke="#ffe59a" stroke-miterlimit="10" stroke-width="1"/>
    <path id="Trazado_138" data-name="Trazado 138" d="M238.43,664.545a15.223,15.223,0,0,1-2.436.272,9.2,9.2,0,0,1-3.2-.292,7.61,7.61,0,0,1-2.27-1.125" transform="translate(-136.918 -311.469)" fill="none" stroke="#ffe59a" stroke-miterlimit="10" stroke-width="1"/>
    <path id="Trazado_139" data-name="Trazado 139" d="M222.9,646.315a9.375,9.375,0,0,0-3.289-.7c-1.368-.036-1.933.272-3.045.207a6.993,6.993,0,0,1-3.845-1.563" transform="translate(-126.346 -300.1)" fill="none" stroke="#ffe59a" stroke-miterlimit="10" stroke-width="1"/>
    <path id="Trazado_140" data-name="Trazado 140" d="M372.958,655.79a9.335,9.335,0,0,1-18.658,0,7.739,7.739,0,0,1,1.186-4.085,9.806,9.806,0,0,1,8.637-4.71,9.469,9.469,0,0,1,6.46,2.794A8.726,8.726,0,0,1,372.958,655.79Z" transform="translate(-210.437 -301.723)" fill="#e30613"/>
    <ellipse id="Elipse_34" data-name="Elipse 34" cx="1.263" cy="0.333" rx="1.263" ry="0.333" transform="translate(149.621 356.402) rotate(-29.04)" fill="#fff"/>
    <ellipse id="Elipse_35" data-name="Elipse 35" cx="0.333" cy="1.255" rx="0.333" ry="1.255" transform="translate(153.244 355.44) rotate(-46.13)" fill="#fff"/>
    <ellipse id="Elipse_36" data-name="Elipse 36" cx="0.333" cy="1.255" rx="0.333" ry="1.255" transform="translate(148.045 353.513) rotate(-46.13)" fill="#fff"/>
    <ellipse id="Elipse_37" data-name="Elipse 37" cx="0.341" cy="1.23" rx="0.341" ry="1.23" transform="translate(150.571 351.261)" fill="#fff"/>
    <ellipse id="Elipse_38" data-name="Elipse 38" cx="1.263" cy="0.333" rx="1.263" ry="0.333" transform="translate(153.118 353.495) rotate(-29.04)" fill="#fff"/>
  </g>
</svg>
