<svg id="Grupo_39" data-name="Grupo 39" xmlns="http://www.w3.org/2000/svg" width="20" height="20" viewBox="0 0 20 20">
  <g id="Grupo_11" data-name="Grupo 11">
    <path id="Trazado_45" data-name="Trazado 45" d="M0,0H20V20H0Z" fill="none"/>
    <path id="Trazado_46" data-name="Trazado 46" d="M0,0H20V20H0Z" fill="none"/>
  </g>
  <g id="Grupo_12" data-name="Grupo 12" transform="translate(2.869 2.977)">
    <path id="Trazado_47" data-name="Trazado 47" d="M10.574,14.987l3.458,2.092a.831.831,0,0,0,1.242-.9l-.917-3.933L17.416,9.6a.832.832,0,0,0-.475-1.458L12.916,7.8,11.341,4.079a.834.834,0,0,0-1.533,0L8.232,7.787l-4.025.342a.832.832,0,0,0-.475,1.458l3.058,2.65L5.874,16.17a.831.831,0,0,0,1.242.9Z" transform="translate(-3.443 -3.572)" fill="#f89b4c"/>
  </g>
</svg>
