<svg xmlns="http://www.w3.org/2000/svg" xmlns:xlink="http://www.w3.org/1999/xlink" width="213" height="88.193" viewBox="0 0 213 88.193"><defs><linearGradient id="a" x1="-21.268" y1="6.839" x2="-21.268" y2="6.84" gradientUnits="objectBoundingBox"><stop offset="0" stop-color="#262755"/><stop offset="1" stop-color="#2b4c9c"/></linearGradient><radialGradient id="b" cx="0.13" cy="38.613" r="0.936" gradientTransform="translate(-0.115 0.003)" gradientUnits="objectBoundingBox"><stop offset="0" stop-color="#8accf2"/><stop offset="0.07" stop-color="#84c9f0"/><stop offset="0.16" stop-color="#74c4ef"/><stop offset="0.25" stop-color="#5abbeb"/><stop offset="0.35" stop-color="#37afe5"/><stop offset="0.46" stop-color="#059eda"/><stop offset="0.5" stop-color="#1496d4"/><stop offset="1" stop-color="#0866b0"/></radialGradient></defs><g transform="translate(-29.13 -307.87)"><rect width="104.342" height="65.798" rx="5" transform="translate(29.63 329.765)" fill="#fff"/><rect width="104.342" height="65.798" rx="5" transform="translate(29.63 329.765)" fill="none" stroke="#878787" stroke-miterlimit="10" stroke-width="1"/><rect width="104.342" height="17.129" rx="3.39" transform="translate(29.63 339.659)" fill="#dadada" stroke="#878787" stroke-miterlimit="10" stroke-width="0.25"/><g transform="translate(36.396 365.452)" opacity="0.8"><rect width="58.06" height="9.301" rx="3" transform="translate(0)" fill="#ffeec0"/></g><circle cx="10.518" cy="10.518" r="10.518" transform="translate(99.744 359.586)" fill="#f49a4e" opacity="0.4"/><circle cx="6.887" cy="6.887" r="6.887" transform="translate(103.375 363.217)" fill="#fff"/><circle cx="7.437" cy="7.437" r="7.437" transform="translate(102.824 362.666)" fill="none" stroke="#f49a4e" stroke-miterlimit="10" stroke-width="1"/><text transform="translate(107.63 371.87)" fill="#1d1d1b" font-size="4" font-family="Fieldwork-GeoLight, Fieldwork Geo" font-weight="300"><tspan x="0" y="0">123</tspan></text><rect width="104.342" height="65.798" rx="5" transform="translate(137.288 329.765)" fill="#fff"/><rect width="104.342" height="65.798" rx="5" transform="translate(137.288 329.765)" fill="none" stroke="#878787" stroke-miterlimit="10" stroke-width="1"/><rect width="84.379" height="8.137" rx="3.39" transform="translate(146.965 364.25)" fill="#dadada"/><rect width="33.279" height="7.794" rx="2.92" transform="translate(146.965 377.264)" fill="#dadada"/><g transform="translate(146.965 349.275)" opacity="0.8"><rect width="21.248" height="11.317" rx="3" transform="translate(0 0)" fill="#ffeec0"/></g><circle cx="10.518" cy="10.518" r="10.518" transform="translate(199.966 344.415)" fill="#f49a4e" opacity="0.4"/><circle cx="6.887" cy="6.887" r="6.887" transform="translate(203.597 348.046)" fill="#fff"/><circle cx="7.437" cy="7.437" r="7.437" transform="translate(203.046 347.495)" fill="none" stroke="#f49a4e" stroke-miterlimit="10" stroke-width="1"/><text transform="translate(206.194 355.99)" fill="#1d1d1b" font-size="4" font-family="Fieldwork-GeoLight, Fieldwork Geo" font-weight="300"><tspan x="0" y="0">1234</tspan></text><g transform="translate(75.668 307.87)"><g transform="translate(0 0)" opacity="0"><rect width="25.242" height="16.695" fill="#fff"/></g><rect width="6.659" height="10.877" transform="translate(9.293 2.907)" fill="#eb611c"/><path d="M265.661,321.645a6.9,6.9,0,0,1,2.644-5.438,6.916,6.916,0,1,0,0,10.877A6.9,6.9,0,0,1,265.661,321.645Z" transform="translate(-255.682 -313.298)" fill="#e41221"/><path d="M360.674,367.387v-.221h.1v-.046h-.23v.046h.1v.221Zm.442,0v-.267h-.063l-.079.192-.081-.192h-.069v.269h.05v-.209l.075.173H361l.075-.173v.209Z" transform="translate(-337.522 -354.755)" fill="#f59e1e"/><path d="M321.91,321.633a6.916,6.916,0,0,1-11.19,5.436,6.916,6.916,0,0,0,1.162-9.712,7.056,7.056,0,0,0-1.162-1.164,6.916,6.916,0,0,1,11.19,5.438Z" transform="translate(-298.099 -313.286)" fill="#f59e1e"/></g><g transform="translate(29.63 310.998)"><path d="M46.341,326.2c-.019,1.461,1.294,2.264,2.281,2.746s1.359.812,1.354,1.252c0,.676-.81.977-1.565.987a5.425,5.425,0,0,1-2.68-.639l-.474,2.212a7.842,7.842,0,0,0,2.9.536c2.738,0,4.535-1.354,4.545-3.452,0-2.665-3.683-2.811-3.658-4,0-.361.353-.745,1.108-.835a4.91,4.91,0,0,1,2.575.451l.455-2.147a7.026,7.026,0,0,0-2.444-.447c-2.579,0-4.395,1.369-4.409,3.339M57.6,323.048a1.19,1.19,0,0,0-1.108.741l-3.921,9.351h2.738l.545-1.507H59.2l.317,1.507h2.412l-2.106-10.092H57.606m.384,2.728.789,3.792H56.613l1.375-3.79m-14.969-2.732-2.16,10.092h2.609l2.158-10.092H43.017m-3.863,0-2.713,6.87-1.1-5.843a1.217,1.217,0,0,0-1.2-1.029H29.695l-.065.294a10.852,10.852,0,0,1,2.581.86,1.1,1.1,0,0,1,.626.887l2.087,8.053h2.742l4.23-10.092H39.159" transform="translate(-29.63 -322.86)" fill="url(#a)"/></g><g transform="translate(181.093 307.87)"><path d="M772.064,307.87H755.43v16.695h16.634v-5.511a.614.614,0,0,0,.1-.367.57.57,0,0,0-.1-.365" transform="translate(-755.43 -307.87)" fill="url(#b)"/><path d="M756.928,336.79l-.319-.778-.319.778m7.688-.309a.434.434,0,0,1-.23.04h-.57v-.434h.576a.479.479,0,0,1,.223.035.177.177,0,0,1,.1.171.209.209,0,0,1-.1.188Zm4.053.309-.323-.778-.321.778Zm-7.552.835H760v-1.532l-.678,1.532H758.9l-.678-1.532v1.532h-.952l-.179-.436h-.975l-.182.436h-.507l.835-1.957h.695l.8,1.857v-1.853h.766l.611,1.327.561-1.327h.778v1.957Zm1.91,0h-1.561v-1.957h1.561v.417h-1.094v.353h1.069v.4h-1.069v.39h1.1Zm2.2-1.43a.549.549,0,0,1-.328.522.533.533,0,0,1,.23.165.541.541,0,0,1,.077.359v.384h-.463v-.246a.582.582,0,0,0-.073-.382.457.457,0,0,0-.34-.083h-.5v.712h-.469v-1.957h1.075a1.127,1.127,0,0,1,.568.094.461.461,0,0,1,.236.434Zm.749,1.43h-.478v-1.957h.478Zm5.534,0h-.661l-.887-1.461v1.461h-.952l-.184-.436h-.972l-.177.436h-.547a.835.835,0,0,1-.933-.71.868.868,0,0,1,0-.255,1.043,1.043,0,0,1,.253-.764.958.958,0,0,1,.71-.23h.453v.417h-.442a.457.457,0,0,0-.359.117.649.649,0,0,0-.136.442.688.688,0,0,0,.129.459.453.453,0,0,0,.326.1h.209l.659-1.54h.71l.791,1.851v-1.851h.712l.822,1.363v-1.363h.478v1.957Zm-15.443.384h.8l.179-.434h.4l.179.434h1.573v-.332l.138.334h.812l.14-.34v.338h3.907v-.693h.075c.054,0,.071,0,.071.094v.626h2.016v-.167a1.59,1.59,0,0,0,.751.167h.849l.182-.434h.4l.177.434h1.638v-.417l.248.417h1.313v-2.744H769.99v.321l-.182-.321h-1.333v.321l-.167-.321h-1.8a1.63,1.63,0,0,0-.78.159v-.159h-1.242v.159a.764.764,0,0,0-.528-.159h-4.539l-.3.7-.313-.7h-1.43v.321l-.152-.321H756l-.566,1.3v1.432Z" transform="translate(-755.43 -329.567)" fill="#fff"/><path d="M784.607,352.172h-.851a.352.352,0,0,0-.19.035.154.154,0,0,0-.069.14.148.148,0,0,0,.1.146.524.524,0,0,0,.179.021h.255a.737.737,0,0,1,.53.157.316.316,0,0,1,.044.048m0,.735a.73.73,0,0,1-.626.25h-.9v-.417h.9a.269.269,0,0,0,.19-.05.16.16,0,0,0,.054-.127.165.165,0,0,0-.056-.129.244.244,0,0,0-.165-.044c-.438-.015-.987.015-.987-.605,0-.284.179-.582.672-.582h.931v-.392h-.872a.989.989,0,0,0-.586.159v-.159h-1.279a.9.9,0,0,0-.557.159v-.159h-2.3v.159a1.231,1.231,0,0,0-.626-.159H776.89v.159a1.077,1.077,0,0,0-.659-.159h-1.686l-.386.417-.361-.417H771.28v2.73h2.473l.4-.417.376.417h1.523v-.643h.15a1.531,1.531,0,0,0,.657-.077v.737h1.252v-.71h.06c.077,0,.086,0,.086.079v.626h3.819a1.081,1.081,0,0,0,.626-.175v.175h1.212a1.614,1.614,0,0,0,.687-.127v-.507Zm-1.866-.783a.546.546,0,0,1,.138.417c0,.417-.263.626-.732.626h-.908V353.3h.9a.275.275,0,0,0,.192-.048.173.173,0,0,0,.054-.127.163.163,0,0,0-.056-.129.25.25,0,0,0-.167-.044c-.438-.015-.985.015-.985-.605,0-.284.177-.582.668-.582h.939v.417h-.854a.311.311,0,0,0-.188.035.165.165,0,0,0-.042.227.161.161,0,0,0,.075.058.53.53,0,0,0,.182.023h.25a.748.748,0,0,1,.532.152Zm-4.215-.113a.434.434,0,0,1-.229.042h-.57v-.44h.576a.476.476,0,0,1,.223.035.188.188,0,0,1,.1.175.209.209,0,0,1-.1.19Zm.282.244a.494.494,0,0,1,.229.165.562.562,0,0,1,.077.357v.388h-.469v-.246c0-.117.013-.292-.075-.382a.457.457,0,0,0-.342-.088h-.5v.716h-.474v-1.957h1.079a1.156,1.156,0,0,1,.563.092.459.459,0,0,1,.24.436.547.547,0,0,1-.334.522Zm.591-1.043h1.563v.4h-1.093v.355h1.066v.4h-1.066v.388h1.093v.407H779.4Zm-3.153.9h-.605v-.5h.609c.169,0,.286.069.286.24S776.424,352.662,776.245,352.662Zm-1.071.876-.722-.8.718-.772Zm-1.853-.23h-1.15v-.39H773.2v-.4h-1.027v-.355h1.173l.507.574Zm3.717-.9c0,.543-.4.655-.814.655h-.584v.655h-.912l-.576-.647-.6.647H771.7V351.76h1.878l.574.641.595-.641h1.494c.376,0,.791.1.791.645Z" transform="translate(-767.972 -342.278)" fill="#fff"/></g><g transform="translate(114.66 307.872)"><circle cx="8.057" cy="8.057" r="8.057" transform="translate(0.351 0.432)" fill="#fff"/><path d="M445.508,324.573a8.364,8.364,0,0,1-8.416-8.276,8.235,8.235,0,0,1,8.049-8.416h2.531A8.525,8.525,0,0,1,456.4,316.3c0,4.551-4.174,8.276-8.729,8.276Zm.019-16a7.642,7.642,0,1,0,7.642,7.642A7.642,7.642,0,0,0,445.527,308.569Zm-1.734,12.16v-9.036a4.837,4.837,0,0,0,0,9.036Zm6.578-4.52a4.846,4.846,0,0,0-3.109-4.52v9.04a4.846,4.846,0,0,0,3.109-4.518Z" transform="translate(-437.09 -307.88)" fill="#1c3f7f"/></g></g></svg>