<svg xmlns="http://www.w3.org/2000/svg" xmlns:xlink="http://www.w3.org/1999/xlink" width="49.547" height="16" viewBox="0 0 49.547 16"><defs><linearGradient id="a" x1="-2.263" y1="18.241" x2="-2.263" y2="18.229" gradientUnits="objectBoundingBox"><stop offset="0" stop-color="#222357"/><stop offset="1" stop-color="#254aa5"/></linearGradient></defs><g transform="translate(0 -29.334)"><path d="M25.625,34.449c-.028,2.229,1.986,3.473,3.5,4.212,1.559.759,2.083,1.245,2.077,1.924-.012,1.038-1.243,1.5-2.4,1.514a8.361,8.361,0,0,1-4.111-.977l-.725,3.391a12.044,12.044,0,0,0,4.451.821c4.2,0,6.955-2.075,6.971-5.293.016-4.084-5.649-4.311-5.611-6.136.013-.553.541-1.144,1.7-1.295a7.545,7.545,0,0,1,3.947.692l.7-3.281a10.74,10.74,0,0,0-3.747-.687c-3.957,0-6.741,2.1-6.763,5.115M42.9,29.617a1.825,1.825,0,0,0-1.7,1.135L35.187,45.093h4.2l.836-2.311h5.135l.485,2.311h3.7L46.316,29.617H42.9m.588,4.181L44.7,39.609H41.376L43.485,33.8M20.531,29.617,17.219,45.093h4l3.311-15.477h-4m-5.923,0L10.44,40.151,8.754,31.194a1.866,1.866,0,0,0-1.846-1.577H.1l-.1.449a16.674,16.674,0,0,1,3.95,1.317,1.7,1.7,0,0,1,.951,1.36L8.094,45.093h4.231l6.487-15.477h-4.2" fill="url(#a)"/></g></svg>