<svg xmlns="http://www.w3.org/2000/svg" viewBox="0 0 37.94 23.88"><defs><style>.cls-1{fill:#fff;}.cls-2,.cls-3{fill:#005098;}.cls-2{stroke:#005098;stroke-width:0.51px;}.cls-4{fill:#f7a600;}</style></defs><title>Recurso 4</title><g id="Capa_2" data-name="Capa 2"><g id="Layer_1" data-name="Layer 1"><path class="cls-1" d="M1.92,16.61Z"/><rect class="cls-2" x="0.26" y="0.26" width="37.42" height="23.36"/><path class="cls-1" d="M2,16.59a1.72,1.72,0,0,0,1.86,1.66H37.68V.26H2V16.59Z"/><path class="cls-3" d="M12.18,4l-2.6,7L9.3,9.6A8.16,8.16,0,0,0,5.63,5.31l2.37,9h2.81L15,4H12.18"/><polyline class="cls-3" points="14.41 14.29 16.07 4 18.73 4 17.07 14.29 14.41 14.29"/><path class="cls-3" d="M26.7,4.26a6.45,6.45,0,0,0-2.38-.44c-2.63,0-4.47,1.4-4.49,3.4,0,1.48,1.32,2.3,2.33,2.8s1.38.82,1.38,1.27c0,.69-.83,1-1.59,1a5.22,5.22,0,0,1-2.5-.54l-.35-.16-.37,2.3a8.09,8.09,0,0,0,3,.56c2.79,0,4.61-1.39,4.63-3.52,0-1.17-.7-2.06-2.24-2.8-.92-.47-1.5-.79-1.49-1.27S23.07,6,24.12,6a4.66,4.66,0,0,1,2,.4l.24.12.36-2.23"/><path class="cls-3" d="M33.51,4h-2a1.32,1.32,0,0,0-1.39.86l-3.95,9.42h2.8l.55-1.54h3.4c.09.36.33,1.54.33,1.54h2.47L33.51,4m-3.27,6.63L31.3,7.77s.21-.6.35-1l.18.89s.51,2.45.61,3Z"/><path class="cls-4" d="M7.17,4H2.89l0,.18A8.92,8.92,0,0,1,9.3,9.6L8.37,4.88A1.1,1.1,0,0,0,7.17,4Z"/></g></g></svg>