<svg xmlns="http://www.w3.org/2000/svg" xmlns:xlink="http://www.w3.org/1999/xlink" viewBox="0 0 37.42 24"><defs><style>.cls-1{stroke:#fbb15f;stroke-width:0.5px;fill:url(#linear-gradient);}.cls-2{fill:#1c3665;}.cls-3{fill:#34679a;}</style><linearGradient id="linear-gradient" x1="18.71" y1="0.25" x2="18.71" y2="23.75" gradientUnits="userSpaceOnUse"><stop offset="0" stop-color="#fff"/><stop offset="0.32" stop-color="#fff7e7"/><stop offset="0.75" stop-color="#feedce"/><stop offset="1" stop-color="#feeac4"/></linearGradient></defs><title>Recurso 7</title><g id="Capa_2" data-name="Capa 2"><g id="Layer_1" data-name="Layer 1"><rect class="cls-1" x="0.25" y="0.25" width="36.92" height="23.5"/><path class="cls-2" d="M34.71,9.55v-1h-.37V8.42h.89v.13h-.37v1Z"/><path class="cls-2" d="M35.38,9.55V8.42h.22l.27.8.05.16A.93.93,0,0,0,36,9.2l.28-.78h.2V9.55h-.15v-1l-.33,1h-.13l-.33-1v1Z"/><path class="cls-3" d="M24,11.11a1.91,1.91,0,0,1-1.17.31h-.23a.28.28,0,0,1-.28-.36l.28-1.2a.47.47,0,0,1,.44-.36h.31a1.46,1.46,0,0,1,.8.18.63.63,0,0,1,.27.56A1,1,0,0,1,24,11.11Zm2-1.86a1.32,1.32,0,0,0-.51-.54,2.23,2.23,0,0,0-.81-.3,5.77,5.77,0,0,0-1.09-.09H21.68a.48.48,0,0,0-.44.36l-1.31,5.69a.27.27,0,0,0,.28.35h.93a.49.49,0,0,0,.45-.35L21.9,13a.49.49,0,0,1,.45-.36h.27a4.37,4.37,0,0,0,2.65-.7,2.18,2.18,0,0,0,.95-1.84A1.8,1.8,0,0,0,26,9.25"/><path class="cls-3" d="M28.89,13.46a2.62,2.62,0,0,1-.49.27,1.32,1.32,0,0,1-.49.11,1.22,1.22,0,0,1-.53-.1.38.38,0,0,1-.18-.35.74.74,0,0,1,.14-.46.85.85,0,0,1,.4-.26,2.76,2.76,0,0,1,.61-.14l.77-.08Zm-.3,1.26h1.17a.49.49,0,0,0,.45-.35l.67-2.93a1.37,1.37,0,0,0,.05-.25,1.86,1.86,0,0,0,0-.22,1,1,0,0,0-.53-.92,3.52,3.52,0,0,0-1.66-.29,7.24,7.24,0,0,0-1.13.08c-.37.06-.65.11-.83.16l-.16.8c0,.19,0,.35.07.35l.69-.21a3,3,0,0,1,.84-.13,2.19,2.19,0,0,1,.84.12.43.43,0,0,1,.29.42.51.51,0,0,1,0,.13.64.64,0,0,1,0,.09c-.53,0-1,.08-1.48.14a4.66,4.66,0,0,0-1.19.33,1.74,1.74,0,0,0-.79.63,1.7,1.7,0,0,0-.27,1,1.1,1.1,0,0,0,.38.88,1.39,1.39,0,0,0,1,.34,2.9,2.9,0,0,0,.58,0,3.52,3.52,0,0,0,.45-.16,2.47,2.47,0,0,0,.38-.21l.35-.23-.12.51"/><path class="cls-3" d="M33.91,8.37l-1.32,6a.49.49,0,0,1-.45.35h-.83a.27.27,0,0,1-.28-.35l1.25-5.64a.47.47,0,0,1,.44-.36h1.19"/><path class="cls-2" d="M7.62,11.12a1.91,1.91,0,0,1-1.17.31H6.21a.28.28,0,0,1-.28-.36l.28-1.2a.49.49,0,0,1,.45-.36H7a1.47,1.47,0,0,1,.81.18.63.63,0,0,1,.27.56A1,1,0,0,1,7.62,11.12Zm2-1.86a1.39,1.39,0,0,0-.51-.54,2.23,2.23,0,0,0-.81-.3,5.89,5.89,0,0,0-1.1-.09H5.27a.47.47,0,0,0-.44.36L3.51,14.38a.28.28,0,0,0,.28.35h.94a.47.47,0,0,0,.44-.35L5.49,13a.48.48,0,0,1,.44-.36H6.2a4.4,4.4,0,0,0,2.66-.7,2.18,2.18,0,0,0,1-1.84,1.8,1.8,0,0,0-.18-.84"/><path class="cls-2" d="M12.47,13.47a2.12,2.12,0,0,1-.49.27,1.28,1.28,0,0,1-.48.11,1.22,1.22,0,0,1-.53-.1.38.38,0,0,1-.18-.35.74.74,0,0,1,.13-.46,1,1,0,0,1,.4-.26,2.9,2.9,0,0,1,.61-.14l.77-.08Zm-.29,1.26h1.17a.47.47,0,0,0,.44-.35l.68-2.93a1.45,1.45,0,0,0,0-.25c0-.09,0-.16,0-.22a1,1,0,0,0-.53-.92,3.57,3.57,0,0,0-1.67-.29,7,7,0,0,0-1.12.08c-.38.06-.66.11-.84.16l-.15.8c0,.19,0,.35.07.35L11,11a3,3,0,0,1,.84-.13,2.26,2.26,0,0,1,.84.12.42.42,0,0,1,.28.42.53.53,0,0,1,0,.13.51.51,0,0,0,0,.09c-.53,0-1,.08-1.49.14a4.47,4.47,0,0,0-1.18.33,1.91,1.91,0,0,0-.8.63,1.7,1.7,0,0,0-.27,1,1.13,1.13,0,0,0,.38.88,1.39,1.39,0,0,0,1,.34,2.82,2.82,0,0,0,.58,0,2.69,2.69,0,0,0,.45-.16,2.54,2.54,0,0,0,.39-.21l.35-.23-.12.51"/><path class="cls-2" d="M19.26,9.76a.79.79,0,0,0-.58.35L17,12.93l-.45-2.81a.47.47,0,0,0-.45-.36H15.3a.28.28,0,0,0-.28.36l.72,4.65c0,.1,0,.18,0,.25l-.89,1.5c-.12.2-.06.36.14.36h1a.75.75,0,0,0,.58-.36l4-6.76Z"/></g></g></svg>