<svg xmlns="http://www.w3.org/2000/svg" xmlns:xlink="http://www.w3.org/1999/xlink" viewBox="0 0 24.32 24.26"><defs><style>.cls-1{fill:url(#radial-gradient);}.cls-2{fill:#fff;}</style><radialGradient id="radial-gradient" cx="-144.79" cy="1027.98" r="22.68" gradientTransform="matrix(1, 0, 0, -1, 149.05, 1032.22)" gradientUnits="userSpaceOnUse"><stop offset="0" stop-color="#9fd4f3"/><stop offset="0.07" stop-color="#99d2f2"/><stop offset="0.16" stop-color="#8bcdf1"/><stop offset="0.25" stop-color="#71c6ef"/><stop offset="0.35" stop-color="#51bcea"/><stop offset="0.45" stop-color="#21ade4"/><stop offset="0.5" stop-color="#1aa6df"/><stop offset="1" stop-color="#3078bc"/></radialGradient></defs><title>Recurso 5</title><g id="Capa_2" data-name="Capa 2"><g id="Layer_1" data-name="Layer 1"><path class="cls-1" d="M24.17,0H0V24.26H24.17v-8a.86.86,0,0,0,.15-.53.8.8,0,0,0-.15-.53"/><path class="cls-2" d="M2.18,10.5,1.71,9.37,1.25,10.5m11.17-.45a.67.67,0,0,1-.33.06h-.83V9.47h.84a.63.63,0,0,1,.32.06.25.25,0,0,1,.14.25A.3.3,0,0,1,12.42,10.05Zm5.89.45-.47-1.13-.47,1.13Zm-11,1.22H6.64V9.5l-1,2.22h-.6l-1-2.22v2.22H2.68l-.26-.63H1l-.26.63H0L1.22,8.88h1l1.16,2.69V8.88H4.5l.89,1.93L6.2,8.88H7.33v2.84Zm2.78,0H7.84V8.88h2.27v.59H8.52V10h1.55v.58H8.52v.57h1.59Zm3.2-2.07a.81.81,0,0,1-.48.76.69.69,0,0,1,.34.24.84.84,0,0,1,.11.52v.55H12.6v-.35a.9.9,0,0,0-.1-.56c-.1-.1-.25-.12-.5-.12h-.73v1h-.68V8.88h1.56A1.59,1.59,0,0,1,13,9,.67.67,0,0,1,13.31,9.65Zm1.09,2.07h-.69V8.88h.69Zm8,0h-1L20.19,9.59v2.13H18.81l-.27-.63H17.13l-.26.63h-.79a1.45,1.45,0,0,1-1-.31,1.46,1.46,0,0,1-.36-1.08,1.54,1.54,0,0,1,.37-1.12,1.4,1.4,0,0,1,1-.33h.66v.61h-.65a.67.67,0,0,0-.52.17.92.92,0,0,0-.19.64,1,1,0,0,0,.18.67.69.69,0,0,0,.48.15h.3l1-2.24h1l1.15,2.69V8.88h1l1.2,2v-2h.69v2.84ZM0,12.28H1.16l.26-.63H2l.26.63H4.55V11.8l.21.48H5.94l.21-.49v.49h5.67v-1h.11c.08,0,.1,0,.1.13v.9H15V12a2.33,2.33,0,0,0,1.1.24h1.23l.26-.63h.59l.26.63h2.38v-.6l.36.6h1.91v-4H21.16v.47l-.27-.47H19v.47l-.24-.47H16.1A2.4,2.4,0,0,0,15,8.55V8.32h-1.8v.23a1.16,1.16,0,0,0-.77-.23H5.8l-.45,1-.45-1H2.82v.47l-.23-.47H.82L0,10.2v2.08Z"/><path class="cls-2" d="M24.17,14.38H22.93a.44.44,0,0,0-.27,0,.24.24,0,0,0-.1.21.22.22,0,0,0,.15.21.93.93,0,0,0,.26,0h.37a1.06,1.06,0,0,1,.77.23.2.2,0,0,1,.06.07m0,1.06a1,1,0,0,1-.92.37H21.94V16h1.31a.41.41,0,0,0,.27-.07.26.26,0,0,0,.08-.19.24.24,0,0,0-.08-.19.37.37,0,0,0-.24-.06c-.64,0-1.44,0-1.44-.88a.86.86,0,0,1,1-.85h1.35v-.56H22.92a1.41,1.41,0,0,0-.85.23v-.23H20.21a1.31,1.31,0,0,0-.82.23v-.23H16.07v.23a1.75,1.75,0,0,0-.91-.23H13v.23a1.53,1.53,0,0,0-1-.23H9.56L9,13.82l-.52-.61H4.81v4H8.4L9,16.56l.54.62h2.22v-.93H12a2.39,2.39,0,0,0,.94-.14v1.07h1.83v-1h.09c.11,0,.12,0,.12.12v.92h5.55a1.57,1.57,0,0,0,.93-.26v.26h1.76a2.36,2.36,0,0,0,1-.19v-.74Zm-2.71-1.13a.8.8,0,0,1,.21.6c0,.61-.39.9-1.07.9H19.28V16h1.31a.43.43,0,0,0,.28-.07.26.26,0,0,0,.08-.19.24.24,0,0,0-.08-.19.4.4,0,0,0-.25-.06c-.63,0-1.42,0-1.42-.88,0-.41.25-.85,1-.85h1.36v.61H20.28a.44.44,0,0,0-.27,0,.24.24,0,0,0-.1.21.22.22,0,0,0,.15.21.93.93,0,0,0,.26,0h.37A1.06,1.06,0,0,1,21.46,15.12Zm-6.13-.18A.58.58,0,0,1,15,15h-.83v-.64H15a.77.77,0,0,1,.32.05.28.28,0,0,1,.14.26A.3.3,0,0,1,15.33,14.94Zm.41.36a.62.62,0,0,1,.33.24.8.8,0,0,1,.12.51v.57H15.5v-.36c0-.17,0-.42-.1-.55a.65.65,0,0,0-.5-.13h-.73v1h-.68V13.77h1.57a1.64,1.64,0,0,1,.81.14.66.66,0,0,1,.35.63A.8.8,0,0,1,15.74,15.3Zm.86-1.53h2.27v.59H17.28v.52h1.55v.58H17.28V16h1.59v.59H16.6ZM12,15.09h-.88v-.73H12c.25,0,.42.1.42.35S12.28,15.09,12,15.09Zm-1.56,1.27-1-1.16,1-1.12ZM7.77,16H6.1v-.57H7.59v-.58H6.1v-.52H7.8l.74.83Zm5.4-1.32c0,.79-.59.95-1.18.95h-.85v1H9.82L9,15.68l-.87.94H5.42V13.77H8.15l.84.94.86-.94H12C12.56,13.77,13.17,13.92,13.17,14.71Z"/></g></g></svg>