<svg xmlns="http://www.w3.org/2000/svg" viewBox="0 0 36.92 23.5"><defs><style>.cls-1{fill:#22215e;}.cls-2{fill:#e40520;}.cls-3{fill:#fab31e;}.cls-4{fill:#06326e;}.cls-5{fill:#fff;}</style></defs><title>Recurso 3</title><g id="Capa_2" data-name="Capa 2"><g id="Layer_1" data-name="Layer 1"><rect class="cls-1" width="36.92" height="23.5"/><path class="cls-2" d="M21.86,11.75A10.35,10.35,0,1,1,11.51,1.4,10.35,10.35,0,0,1,21.86,11.75Z"/><path class="cls-3" d="M25.41,1.4a10.32,10.32,0,0,0-6.95,2.68,12,12,0,0,0-1.05,1.09H19.5a10.53,10.53,0,0,1,.79,1.1H16.62A8.93,8.93,0,0,0,16,7.37h4.86a10.34,10.34,0,0,1,.44,1.09H15.59a10.52,10.52,0,0,0-.3,1.1h6.34a10.5,10.5,0,0,1-.3,5.48H15.59A8.56,8.56,0,0,0,16,16.13h4.86a10.59,10.59,0,0,1-.6,1.1H16.62a12.24,12.24,0,0,0,.79,1.1H19.5a10.72,10.72,0,0,1-1,1.09,10.35,10.35,0,1,0,7-18Z"/><path class="cls-3" d="M34.38,17.52a.33.33,0,0,1,.33-.33.33.33,0,0,1,0,.66A.33.33,0,0,1,34.38,17.52Zm.33.25a.25.25,0,1,0,0-.5.25.25,0,0,0,0,.5Zm0-.1H34.6v-.3h.12a.12.12,0,0,1,.08,0,.08.08,0,0,1,0,.07.1.1,0,0,1,0,.08l.06.13h-.08l0-.12h0Zm0-.17h.08s0,0,0,0a0,0,0,0,0,0,0h-.08Z"/><path class="cls-4" d="M9.09,12.88H8.84c-.63,0-1,.21-1,.65a.39.39,0,0,0,.41.43C8.74,14,9.07,13.52,9.09,12.88Zm.82,1.91H9l0-.45a1.4,1.4,0,0,1-1.18.52,1,1,0,0,1-1-1.17c0-1,.72-1.64,2-1.64l.46,0a1.23,1.23,0,0,0,0-.28c0-.28-.19-.39-.72-.39a3.92,3.92,0,0,0-1.19.2c0-.07.16-1,.16-1a4.32,4.32,0,0,1,1.34-.23c1,0,1.48.43,1.48,1.25a6.86,6.86,0,0,1-.09.85C10.15,13.14,9.94,14.46,9.91,14.79Z"/><polygon class="cls-4" points="6.33 14.79 5.2 14.79 5.85 10.75 4.41 14.79 3.65 14.79 3.55 10.77 2.87 14.79 1.82 14.79 2.7 9.54 4.32 9.54 4.41 12.47 5.4 9.54 7.2 9.54 6.33 14.79"/><path class="cls-4" d="M26.79,12.88h-.25c-.63,0-.95.21-.95.65A.39.39,0,0,0,26,14C26.45,14,26.78,13.52,26.79,12.88Zm.82,1.91h-.93l0-.45a1.4,1.4,0,0,1-1.17.52,1.05,1.05,0,0,1-1-1.17c0-1,.73-1.64,2-1.64l.46,0a1.23,1.23,0,0,0,0-.28c0-.28-.19-.39-.72-.39a3.92,3.92,0,0,0-1.19.2c0-.07.16-1,.16-1a4.32,4.32,0,0,1,1.34-.23c1,0,1.48.43,1.48,1.25a6.86,6.86,0,0,1-.09.85C27.85,13.14,27.64,14.46,27.61,14.79Z"/><path class="cls-4" d="M14.9,14.72a2.41,2.41,0,0,1-.8.14.82.82,0,0,1-.89-.94,9.67,9.67,0,0,1,.15-1.14c.07-.4.49-2.91.49-2.91H15l-.13.65h.67l-.15,1h-.68c-.13.81-.31,1.83-.31,2s.11.32.38.32a1.08,1.08,0,0,0,.3,0Z"/><path class="cls-4" d="M18.33,14.69a4.05,4.05,0,0,1-1.15.17A1.7,1.7,0,0,1,15.28,13c0-1.45.83-2.53,2-2.53A1.43,1.43,0,0,1,18.75,12a5.16,5.16,0,0,1-.14,1H16.38c-.07.61.32.87,1,.87a2.59,2.59,0,0,0,1.16-.27Zm-.63-2.54c0-.08.12-.76-.52-.76-.35,0-.61.27-.71.76Z"/><path class="cls-4" d="M10.59,11.87a1.24,1.24,0,0,0,.85,1.19c.46.21.52.28.52.47s-.19.39-.64.39a3.39,3.39,0,0,1-1-.17s-.14.94-.15,1a4.85,4.85,0,0,0,1.17.13c1.18,0,1.73-.45,1.73-1.43a1.18,1.18,0,0,0-.79-1.19c-.47-.21-.53-.26-.53-.46s.19-.35.55-.35a6.07,6.07,0,0,1,.81.06l.16-1a8.78,8.78,0,0,0-1-.08C11,10.42,10.58,11.08,10.59,11.87Z"/><path class="cls-4" d="M23.79,10.53a2.06,2.06,0,0,1,1,.29L25,9.68a3.14,3.14,0,0,0-1.23-.45,2.27,2.27,0,0,0-1.84,1c-.65-.21-.92.22-1.25.66l-.29.07a3.28,3.28,0,0,0,0-.43h-1c-.14,1.32-.39,2.66-.58,4l-.05.29h1.12c.19-1.22.29-2,.35-2.53l.43-.24c.06-.23.26-.31.65-.3a4.94,4.94,0,0,0-.07.87c0,1.4.75,2.27,2,2.27a3.55,3.55,0,0,0,1-.15l.2-1.2a2.23,2.23,0,0,1-1,.27c-.65,0-1-.48-1-1.28C22.37,11.34,23,10.53,23.79,10.53Z"/><path class="cls-4" d="M33.31,9.54l-.25,1.51A1.42,1.42,0,0,0,32,10.36a1.75,1.75,0,0,0-1.42,1.06,8.74,8.74,0,0,1-.95-.27h0c0-.35.05-.57.05-.64h-1c-.14,1.32-.39,2.66-.58,4l-.05.29h1.12c.15-1,.27-1.81.35-2.46.39-.34.58-.65,1-.63a3.74,3.74,0,0,0-.27,1.39c0,1.07.54,1.77,1.35,1.77a1.33,1.33,0,0,0,1-.47l0,.4h1.06l.85-5.25ZM31.9,13.8q-.57,0-.57-.84c0-.84.36-1.44.87-1.44s.59.3.59.84C32.79,13.21,32.42,13.8,31.9,13.8Z"/><polygon class="cls-5" points="6.65 14.47 5.53 14.47 6.17 10.44 4.73 14.47 3.97 14.47 3.87 10.46 3.2 14.47 2.15 14.47 3.02 9.22 4.64 9.22 4.68 12.47 5.77 9.22 7.52 9.22 6.65 14.47"/><path class="cls-5" d="M9.42,12.57l-.25,0c-.64,0-1,.22-1,.65a.39.39,0,0,0,.4.44C9.07,13.64,9.4,13.2,9.42,12.57Zm.81,1.9H9.3l0-.44a1.43,1.43,0,0,1-1.18.52,1.06,1.06,0,0,1-1-1.17c0-1,.73-1.64,2-1.64l.46,0a.91.91,0,0,0,0-.28c0-.28-.2-.39-.72-.39a3.7,3.7,0,0,0-1.2.2c0-.08.16-1,.16-1a4.33,4.33,0,0,1,1.35-.23c1,0,1.47.43,1.47,1.25a5.34,5.34,0,0,1-.09.85C10.47,12.83,10.26,14.15,10.23,14.47Z"/><path class="cls-5" d="M25.3,9.37l-.18,1.13a2.15,2.15,0,0,0-1-.28c-.84,0-1.43.81-1.43,2,0,.8.4,1.28,1,1.28a2.19,2.19,0,0,0,1-.27l-.19,1.19a3.37,3.37,0,0,1-1,.16c-1.21,0-2-.87-2-2.27,0-1.88,1-3.19,2.53-3.19A3.65,3.65,0,0,1,25.3,9.37Z"/><path class="cls-5" d="M27.12,12.57l-.25,0c-.64,0-1,.22-1,.65a.39.39,0,0,0,.4.44C26.77,13.64,27.1,13.2,27.12,12.57Zm.82,1.9H27L27,14a1.43,1.43,0,0,1-1.18.52,1.06,1.06,0,0,1-1-1.17c0-1,.73-1.64,2-1.64l.46,0a.91.91,0,0,0,.05-.28c0-.28-.2-.39-.72-.39a3.57,3.57,0,0,0-1.19.2c0-.08.15-1,.15-1a4.33,4.33,0,0,1,1.35-.23c1,0,1.47.43,1.47,1.25a5.34,5.34,0,0,1-.09.85C28.17,12.83,28,14.15,27.94,14.47Z"/><path class="cls-5" d="M15.23,14.41a2.51,2.51,0,0,1-.81.14.83.83,0,0,1-.89-.94c0-.19.09-.69.16-1.14s.48-2.91.48-2.91h1.12l-.13.65h.57l-.15,1H15c-.13.81-.32,1.82-.32,2s.12.31.39.31a.87.87,0,0,0,.3,0Z"/><path class="cls-5" d="M18.65,14.38a4,4,0,0,1-1.14.17,1.71,1.71,0,0,1-1.91-1.91c0-1.46.83-2.53,2-2.53a1.43,1.43,0,0,1,1.51,1.54,4.54,4.54,0,0,1-.14,1.06H16.71c-.08.61.32.87,1,.87a2.59,2.59,0,0,0,1.16-.27ZM18,11.84c0-.09.11-.76-.52-.76-.36,0-.61.27-.72.76Z"/><path class="cls-5" d="M10.91,11.55a1.25,1.25,0,0,0,.85,1.2c.46.21.53.27.53.47s-.2.38-.65.38a3.31,3.31,0,0,1-1-.16s-.15.94-.16,1a5,5,0,0,0,1.17.13c1.19,0,1.74-.45,1.74-1.43a1.17,1.17,0,0,0-.8-1.19c-.47-.22-.52-.26-.52-.46s.18-.35.55-.35a6.31,6.31,0,0,1,.81.06l.16-1a9.17,9.17,0,0,0-1-.08C11.34,10.11,10.9,10.77,10.91,11.55Z"/><path class="cls-5" d="M33.88,14.47H32.82l0-.39a1.31,1.31,0,0,1-1,.47c-.82,0-1.36-.71-1.36-1.77,0-1.42.84-2.62,1.83-2.62a1.28,1.28,0,0,1,1.07.58l.25-1.52h1.11Zm-1.66-1c.53,0,.9-.6.9-1.44,0-.54-.21-.84-.6-.84s-.87.6-.87,1.44Q31.65,13.49,32.22,13.49Z"/><path class="cls-5" d="M29,10.21c-.14,1.32-.39,2.66-.59,4l-.05.28h1.12c.41-2.61.5-3.12,1.13-3.05A4.15,4.15,0,0,1,31,10.18c-.47-.1-.73.17-1.08.67a3.58,3.58,0,0,0,.07-.64Z"/><path class="cls-5" d="M19.7,10.21c-.14,1.32-.39,2.66-.59,4l-.05.28h1.12c.41-2.61.5-3.12,1.13-3.05a4.15,4.15,0,0,1,.43-1.24c-.47-.1-.73.17-1.08.67a3.58,3.58,0,0,0,.07-.64Z"/><path class="cls-5" d="M34.38,14.14a.33.33,0,0,1,.66,0,.33.33,0,0,1-.66,0Zm.33.25a.25.25,0,1,0-.25-.25A.25.25,0,0,0,34.71,14.39Zm-.05-.1H34.6V14h.12a.12.12,0,0,1,.08,0,.08.08,0,0,1,0,.07.09.09,0,0,1,0,.08l.06.13h-.08l0-.12h-.05Zm0-.17h.09s0,0,0,0a0,0,0,0,0,0,0s0,0,0,0h0Z"/></g></g></svg>