<svg xmlns="http://www.w3.org/2000/svg" xmlns:xlink="http://www.w3.org/1999/xlink" viewBox="0 0 37.31 23.87"><defs><style>.cls-1{fill:#f58220;}.cls-2{fill:#231f20;}.cls-3{fill:url(#radial-gradient);}.cls-4{fill:#001722;}</style><radialGradient id="radial-gradient" cx="13.12" cy="-477.34" r="2.72" gradientTransform="translate(6.42 486.08)" gradientUnits="userSpaceOnUse"><stop offset="0.01" stop-color="#ffefe1"/><stop offset="0.11" stop-color="#ffead8"/><stop offset="0.28" stop-color="#fddcc0"/><stop offset="0.49" stop-color="#fbc698"/><stop offset="0.74" stop-color="#f8a761"/><stop offset="1" stop-color="#f58220"/></radialGradient></defs><title>Recurso 6</title><g id="Capa_2" data-name="Capa 2"><g id="Layer_1" data-name="Layer 1"><path class="cls-1" d="M37,13.26S26.92,20.4,8.39,23.6H37Z"/><path class="cls-2" d="M37.18,0H0V23.87H37.31V0ZM37,.27V23.6H.27V.27Z"/><path class="cls-3" d="M19.54,6.06a2.69,2.69,0,1,0,2.75,2.68A2.7,2.7,0,0,0,19.54,6.06Z"/><path class="cls-4" d="M3.91,6.16H2.42v5.16H3.9a2.68,2.68,0,0,0,1.84-.6A2.58,2.58,0,0,0,3.91,6.16ZM5.08,10a1.89,1.89,0,0,1-1.38.42H3.43V7H3.7a1.86,1.86,0,0,1,1.38.42,1.77,1.77,0,0,1,0,2.58Z"/><rect class="cls-4" x="7.14" y="6.16" width="1.01" height="5.16"/><path class="cls-4" d="M10.61,8.14c-.6-.23-.78-.38-.78-.65s.32-.58.75-.58a1.05,1.05,0,0,1,.81.42l.53-.69a2.25,2.25,0,0,0-1.52-.57A1.52,1.52,0,0,0,8.79,7.55c0,.71.33,1.07,1.27,1.42a3.48,3.48,0,0,1,.7.29.62.62,0,0,1,.3.53.73.73,0,0,1-.78.73,1.19,1.19,0,0,1-1.1-.69l-.65.63a2,2,0,0,0,1.79,1A1.66,1.66,0,0,0,12.1,9.75C12.1,8.93,11.76,8.56,10.61,8.14Z"/><path class="cls-4" d="M12.42,8.74a2.67,2.67,0,0,0,2.72,2.7,2.76,2.76,0,0,0,1.27-.31V10a1.63,1.63,0,0,1-1.22.56,1.69,1.69,0,0,1-1.74-1.78A1.72,1.72,0,0,1,15.14,7a1.7,1.7,0,0,1,1.27.58V6.35A2.65,2.65,0,0,0,15.17,6,2.71,2.71,0,0,0,12.42,8.74Z"/><polygon class="cls-4" points="24.57 9.63 23.19 6.16 22.09 6.16 24.28 11.45 24.82 11.45 27.05 6.16 25.96 6.16 24.57 9.63"/><polygon class="cls-4" points="27.51 11.32 30.37 11.32 30.37 10.45 28.52 10.45 28.52 9.05 30.3 9.05 30.3 8.18 28.52 8.18 28.52 7.03 30.37 7.03 30.37 6.16 27.51 6.16 27.51 11.32"/><path class="cls-4" d="M34.36,7.68c0-1-.67-1.52-1.83-1.52H31v5.16h1V9.24h.13l1.4,2.08h1.24L33.18,9.14A1.37,1.37,0,0,0,34.36,7.68Zm-2,.85H32V7h.31c.63,0,1,.26,1,.76S33,8.53,32.34,8.53Z"/><path class="cls-2" d="M35.07,6.54c0-.09-.06-.14-.17-.14h-.15v.45h.11V6.68l.12.17h.14L35,6.67A.14.14,0,0,0,35.07,6.54Zm-.19.06h0V6.48h0s.08,0,.08.06S34.93,6.6,34.88,6.6Z"/><path class="cls-2" d="M34.92,6.23a.4.4,0,0,0-.4.4.4.4,0,0,0,.79,0A.4.4,0,0,0,34.92,6.23Zm0,.72a.32.32,0,0,1-.32-.32.32.32,0,1,1,.63,0A.31.31,0,0,1,34.92,7Z"/><path class="cls-2" d="M11.45,12.68l1.35,1.41V12.75H13v1.81l-1.34-1.41v1.33h-.2Z"/><path class="cls-2" d="M11.44,12.68V14.5h.22V13.19L13,14.6V12.73h-.23V14l-1.34-1.41Zm0,0,1.35,1.41V12.77H13v1.74L11.63,13.1v1.36h-.16Z"/><path class="cls-2" d="M13.93,12.75h.89v.18h-.7v.51h.68v.18h-.68v.68h.7v.18h-.89Z"/><path class="cls-2" d="M14.82,12.73h-.91V14.5h.93v-.22h-.7v-.64h.68v-.21h-.68V13h.7v-.22Zm0,0v.14h-.7v.55h.68v.14H14.1v.72h.7v.14H14V12.77Z"/><path class="cls-2" d="M16.18,14.48H16V12.93h-.42v-.18h1v.18h-.42Z"/><path class="cls-2" d="M16.6,12.73H15.55V13H16V14.5h.23V13h.42v-.22Zm0,0v.14h-.43v1.55H16V12.91h-.42v-.14Z"/><path class="cls-2" d="M17.89,14.05l.56-1.39L19,14.05l.45-1.3h.21L19,14.57l-.56-1.39-.56,1.39-.66-1.82h.21Z"/><path class="cls-2" d="M18.43,12.65s-.5,1.26-.54,1.34l-.44-1.26H17.2l.69,1.89.56-1.39L19,14.62l.69-1.89h-.25L19,14c0-.08-.56-1.38-.56-1.38Zm-.52,1.4.54-1.34L19,14.1l.47-1.33h.17S19,14.43,19,14.52l-.56-1.39-.56,1.39c0-.09-.62-1.71-.64-1.75h.17l.47,1.33Z"/><path class="cls-2" d="M22.16,13.62a.9.9,0,1,1-.9-.9A.9.9,0,0,1,22.16,13.62Zm-1.61,0a.71.71,0,1,0,1.42,0,.71.71,0,1,0-1.42,0Z"/><path class="cls-2" d="M20.34,13.62a.92.92,0,1,0,.92-.92A.92.92,0,0,0,20.34,13.62Zm0,0a.88.88,0,1,1,.88.87A.87.87,0,0,1,20.38,13.62Z"/><path class="cls-2" d="M20.53,13.61a.73.73,0,1,0,.73-.73A.74.74,0,0,0,20.53,13.61Zm0,0a.69.69,0,1,1,.69.7A.69.69,0,0,1,20.57,13.61Z"/><path class="cls-2" d="M23.19,14.48H23V12.75h.25c.32,0,.63.09.63.48a.45.45,0,0,1-.43.47l.54.78h-.23l-.52-.76h0Zm0-.93h.06c.21,0,.44,0,.44-.31s-.21-.31-.44-.31h-.06Z"/><path class="cls-2" d="M23,12.73h0V14.5h.23v-.76h0l.5.75H24l-.56-.79a.46.46,0,0,0,.43-.48c0-.34-.22-.5-.65-.5Zm.25,0c.41,0,.61.14.61.46a.44.44,0,0,1-.42.46h0l.55.77h-.2s-.51-.75-.51-.75h-.08v.76H23V12.77Z"/><path class="cls-2" d="M23.19,12.91h0v.66h.08c.21,0,.45,0,.45-.33s-.23-.33-.45-.33Zm.06,0c.22,0,.42,0,.42.29s-.22.29-.42.29h0V13Z"/><path class="cls-2" d="M25.74,12.75H26l-.81.81.84.92h-.27l-.71-.79-.05,0v.75h-.19V12.75H25v.74Z"/><path class="cls-2" d="M26,12.73h-.27l-.71.72v-.72h-.23V14.5H25v-.76l0,0,.7.78h.32l-.86-.94.83-.83Zm-.05,0-.79.79.82.9h-.22s-.7-.79-.7-.79h0l-.06.06v.74h-.16V12.77H25v.76l.76-.76Z"/></g></g></svg>