<svg xmlns="http://www.w3.org/2000/svg" width="29.117" height="28.366" viewBox="0 0 29.117 28.366">
  <path id="Trazado_50" data-name="Trazado 50" d="M31.012,13.056l-8.233-.728L19.564,4.615a1.689,1.689,0,0,0-3.13,0l-3.215,7.73L5,13.056a1.737,1.737,0,0,0-.97,3.033L10.276,21.6,8.4,29.782a1.7,1.7,0,0,0,2.535,1.872L18,27.321l7.059,4.35A1.7,1.7,0,0,0,27.593,29.8l-1.871-8.2,6.243-5.512A1.733,1.733,0,0,0,31.012,13.056ZM18,24.08l-6.4,3.934L13.3,20.6,7.657,15.6l7.451-.659L18,7.961l2.909,7,7.451.659-5.648,4.992,1.7,7.418Z" transform="translate(-3.443 -3.562)" fill="#1d252d"/>
</svg>
