<svg id="star-24px" xmlns="http://www.w3.org/2000/svg" width="36" height="36" viewBox="0 0 36 36">
  <g id="Grupo_62" data-name="Grupo 62">
    <path id="Trazado_73" data-name="Trazado 73" d="M0,0H36V36H0Z" fill="none"/>
    <path id="Trazado_74" data-name="Trazado 74" d="M0,0H36V36H0Z" fill="none"/>
  </g>
  <g id="Grupo_63" data-name="Grupo 63" transform="translate(5.165 5.359)">
    <path id="Trazado_75" data-name="Trazado 75" d="M16.278,24.119,22.5,27.884a1.5,1.5,0,0,0,2.235-1.62l-1.65-7.08,5.505-4.77a1.5,1.5,0,0,0-.855-2.625l-7.245-.615-2.835-6.69a1.5,1.5,0,0,0-2.76,0l-2.835,6.675-7.245.615A1.5,1.5,0,0,0,3.963,14.4l5.505,4.77-1.65,7.08a1.5,1.5,0,0,0,2.235,1.62Z" transform="translate(-3.443 -3.573)" fill="#1d252d"/>
  </g>
</svg>
